<svg id="Layer_1" data-name="Layer 1" xmlns="http://www.w3.org/2000/svg" viewBox="0 0 26 32"><defs><style>.cls-1,.cls-2{fill:none;stroke:#37508a;stroke-linecap:round;stroke-width:1.5px;}.cls-1{stroke-linejoin:round;}.cls-3{fill:#37508a;}</style></defs><path class="cls-1" d="M11,18.5c.83-1.17,2.8-2.7,4-1.5a2.81,2.81,0,0,1,4,1c.67-.17,2.1-.3,2.5.5"/><path class="cls-2" d="M15.5,17C16,13.33,17.6,6,20,6"/><path class="cls-3" d="M16.64,11.16a.75.75,0,0,0,.72-1.32ZM17.5,4l-.29-.69-.07,0-.06,0ZM23,1l.53-.53a.74.74,0,0,0-.9-.12.75.75,0,0,0-.36.84Zm-5.1,9.76a.75.75,0,1,0,.2,1.48Zm-.54-.92A5.37,5.37,0,0,1,16.16,9a2.3,2.3,0,0,1-.67-1.07c-.14-.62.1-1.73,2.43-3.29l-.84-1.24C14.61,5,13.68,6.66,14,8.24a3.8,3.8,0,0,0,1.07,1.81,6.93,6.93,0,0,0,1.54,1.11Zm.43-5.15c1-.42,2.5-1.08,3.7-1.68A16,16,0,0,0,23,2.14a2.52,2.52,0,0,0,.52-.46.94.94,0,0,0,.22-.44.85.85,0,0,0-.23-.77L22.47,1.53a.65.65,0,0,1-.18-.59.68.68,0,0,1,.06-.16s0,0,0-.05,0,0-.05.05L22.17.9a13.4,13.4,0,0,1-1.36.77c-1.15.58-2.61,1.22-3.6,1.64Zm4.48-3.5a11.52,11.52,0,0,1,.07,5.74,5.31,5.31,0,0,1-1.43,2.49,5.18,5.18,0,0,1-3,1.34l.2,1.48A6.75,6.75,0,0,0,22,10.51a6.94,6.94,0,0,0,1.83-3.17A13.12,13.12,0,0,0,23.73.81Z"/><path class="cls-2" d="M15.5,15c-.67-1.17-2.2-3.5-3-3.5"/><path class="cls-3" d="M14.92,14.12a.75.75,0,0,0-.84-1.24ZM9,8.5l.15-.74a.77.77,0,0,0-.9.79Zm4,1,.28-.7-.14-.05H13Zm1.27,2.82a.75.75,0,0,0,1.46.36Zm-.19.56A2.37,2.37,0,0,1,11.7,13c-.82-.45-1.76-1.65-1.95-4.52l-1.5.1c.21,3.13,1.27,4.93,2.73,5.73a3.88,3.88,0,0,0,3.94-.16ZM8.85,9.24c.38.07,1.12.3,2,.54.4.12.81.23,1.17.32a5,5,0,0,0,1,.15V8.75a3.61,3.61,0,0,1-.68-.11c-.32-.08-.71-.18-1.1-.3-.75-.22-1.62-.48-2.07-.58Zm3.87,1A3.2,3.2,0,0,1,13.9,11a1.38,1.38,0,0,1,.37,1.3l1.46.36A2.9,2.9,0,0,0,15,10,4.86,4.86,0,0,0,13.28,8.8Z"/><path class="cls-2" d="M1,23.5l2.5-2L9,29,6.5,31"/><path class="cls-2" d="M11.5,23.5l3,.5c1.17,0,3.1-.6,1.5-3L9,20a2.69,2.69,0,0,0-2.5.5L4.5,22"/><path class="cls-2" d="M8.5,28a4.18,4.18,0,0,1,2.5-.5l3.5.5A3.88,3.88,0,0,0,18,27l7-5.5c.33-.83.5-2.5-1.5-2.5l-5,4"/></svg>