<svg id="Layer_1" data-name="Layer 1" xmlns="http://www.w3.org/2000/svg" viewBox="0 0 34 31.62"><defs><style>.cls-1{fill:#37508a;}</style></defs><path class="cls-1" d="M10.91,31.61c-1,0-2.09,0-3.13,0-.59,0-1.18-.15-1.27-.8a7.58,7.58,0,0,1,.1-4c.3-.76.16-1-.37-1.41-1.59-1.26-3.12-2.61-4.72-3.87A3.6,3.6,0,0,1,0,18.49C0,16.25,0,14,0,11.78c0-1.27.35-2.37,1.77-2.52s2,.84,2.27,2.08c.06.29.1.58.15.88a3.74,3.74,0,0,0,2,3.08C8.43,16.73,11,17.87,13,19.7c.56.5,1.24,1,1.29,1.77.24,2.88,1.35,5.62,1.25,8.54,0,1.14-.51,1.64-1.63,1.61S11.91,31.62,10.91,31.61ZM1.54,15.14h0a23.7,23.7,0,0,1,0,2.53,3.21,3.21,0,0,0,1.51,3.15c1.7,1.28,3.63,2.45,4.86,4.11,1.49,2,3.28.9,4.92,1.19.18,0,.32-.08.39-.33.36-1.24-.64-4.25-1.66-5.14-1.76-1.53-4.21-2-5.77-3.83-.2-.22-.52-.41-.78-.15s0,.63.26.84c.59.53,1.23,1,1.81,1.54s1.27.74.67,1.53-1.14.08-1.62-.27-1-.83-1.5-1.22a3.25,3.25,0,0,1-1.44-2.74,32.16,32.16,0,0,0-.82-4.82c0-.3-.12-.65-.51-.57s-.35.35-.35.61C1.53,12.76,1.54,14,1.54,15.14ZM10.91,30c.59,0,1.19,0,1.78,0,.92.1,1.18-.24,1.17-1.17s-.17-1.27-1.14-1.2a32.51,32.51,0,0,1-3.42,0c-.86,0-1.34.06-1.33,1.17s.4,1.27,1.3,1.19C9.81,29.94,10.36,30,10.91,30Z"/><path class="cls-1" d="M33.71,15.27c1,3.76-.67,6.27-3.7,8.15-2,1.21-3.42,2.62-2.55,5.23a4.88,4.88,0,0,1,0,1.48c0,.91-.4,1.4-1.34,1.4H19.73c-.67,0-1.24-.25-1.27-1-.05-1.19-.34-2.53.1-3.53a8.78,8.78,0,0,0,.72-3.56c0-2.95,2-4.35,4.19-5.45a19.59,19.59,0,0,0,3.45-2.27c.23-.19.43-.55.67-.57,2-.13,1.82-1.65,2-3A10.13,10.13,0,0,1,30,10.49,1.84,1.84,0,0,1,32,9.14a1.89,1.89,0,0,1,1.8,1.71A22.47,22.47,0,0,1,33.71,15.27ZM32,10.89a8.51,8.51,0,0,0-1.11,4.54c.09,2.71-1.81,3.78-3.46,5.13-.37.3-.82.46-1.2,0s-.19-.92.23-1.27c.6-.52,1.24-1,1.83-1.52.33-.3,1.06-.56.6-1.11s-.79.13-1.1.39A17.41,17.41,0,0,1,24,19.48c-1.69.82-3.16,1.95-3.17,4.26s-.15,2.38,2.31,2.33c.67,0,1.57.41,2-.23a12,12,0,0,1,3.92-3.59c2.55-1.67,3.74-3.76,3.26-6.82C32.09,14,32.52,12.41,32,10.89ZM23,30a12.81,12.81,0,0,1,1.64,0c1,.13,1.26-.29,1.28-1.25s-.43-1.14-1.26-1.09c-1.09.05-2.18,0-3.28,0-.75,0-1.44-.16-1.43,1.06s.44,1.37,1.41,1.27A14.94,14.94,0,0,1,23,30Z"/><path class="cls-1" d="M27.85,6.76a7.3,7.3,0,0,1-2.13,4.85,48.51,48.51,0,0,1-7.9,6.31,1.51,1.51,0,0,1-1.91-.1,50.87,50.87,0,0,1-7.38-5.77C5.42,9,5.09,4.6,7.71,1.93a5.8,5.8,0,0,1,8.48-.09c.44.41.71.88,1.36.13A5.25,5.25,0,0,1,23.89.47C26.48,1.48,27.86,3.6,27.85,6.76Zm-1.6-.57a4.5,4.5,0,0,0-2.93-4.25,4,4,0,0,0-4.7,1.17,14.78,14.78,0,0,0-.92,1.17c-.57.78-1.1.73-1.63,0a9.48,9.48,0,0,0-.72-1,4,4,0,0,0-4.07-1.57A4.44,4.44,0,0,0,7.74,5a5.7,5.7,0,0,0,1.67,5.71,44,44,0,0,0,6.84,5.47,1,1,0,0,0,1.32-.05,56.92,56.92,0,0,0,6.33-4.94A6.74,6.74,0,0,0,26.25,6.19Z"/></svg>