<svg id="Layer_1" data-name="Layer 1" xmlns="http://www.w3.org/2000/svg" xmlns:xlink="http://www.w3.org/1999/xlink" viewBox="0 0 27.22 31.58"><defs><style>.cls-1{fill:#fff;}.cls-2,.cls-6{fill:#37508a;}.cls-3{mask:url(#mask);}.cls-4{fill:none;stroke-width:0.4px;}.cls-4,.cls-6{stroke:#37508a;}.cls-5{mask:url(#mask-2);}.cls-6{stroke-width:0.2px;}</style><mask id="mask" x="-0.8" y="6.6" width="22" height="25" maskUnits="userSpaceOnUse"><g id="path-1-outside-1_3774_732" data-name="path-1-outside-1 3774 732"><rect class="cls-1" x="-0.8" y="6.6" width="22" height="25"/><path d="M9.8,8.7H8.71a2.41,2.41,0,0,0-2.47,2.54c0,1.23,0,2.48.09,3.72,0,.45-.19.71-.55.71s-.54-.26-.56-.67l-.06-1.42c0-.07,0-.16,0-.18a.21.21,0,0,0-.22.11,2,2,0,0,0-.18.36C4.2,15,3.71,16.1,3.2,17.21a1.56,1.56,0,0,1-2,.85,1.5,1.5,0,0,1-.86-2c.64-1.47,1.29-2.91,2-4.36A1.49,1.49,0,0,1,2.93,11q1.14-.66,2.31-1.29a1.21,1.21,0,0,0,.4-.38,3.56,3.56,0,0,1,3.1-1.75,16.6,16.6,0,0,1,2.73.06A3.42,3.42,0,0,1,14.12,9.6a1.43,1.43,0,0,0,.54.6l2.13,1.33a.72.72,0,0,0,.38.13c.51,0,1,0,1.54,0a2,2,0,0,1,1.38.25,1.55,1.55,0,0,1-.74,2.85c-.93,0-1.85.06-2.8.08a1.53,1.53,0,0,1-.81-.26L14.86,14c-.18-.11-.25-.09-.25.12,0,.37,0,.73,0,1.09,0,1,.07,2.05.11,3.07a.67.67,0,0,0,.14.4c.64,1,1.27,2,1.91,3a2.1,2.1,0,0,1,.31,1.69c-.38,1.65-.75,3.3-1.13,4.95a1.8,1.8,0,1,1-3.52-.8c.29-1.34.6-2.68.91-4a.72.72,0,0,0-.11-.62L12.1,21.1a.4.4,0,0,0-.38-.22H10.14c-.2,0-.27.05-.22.27.13.53.22,1.05.35,1.58a2.41,2.41,0,0,1-.07,1.43q-.82,2.4-1.6,4.8c-.13.38-.24.74-.37,1.12a1.78,1.78,0,0,1-2.29,1.2A1.81,1.81,0,0,1,4.8,29c.44-1.38.84-2.78,1.38-4.13a4.72,4.72,0,0,0,.11-3.39c0-.18-.09-.36-.13-.54a2.52,2.52,0,0,0-.51-1.28,1.59,1.59,0,0,1-.32-.83.59.59,0,0,1,.42-.71.57.57,0,0,1,.67.44,1.65,1.65,0,0,0,.2.52,1.35,1.35,0,0,0,1.2.69H13.3c.24,0,.33-.07.33-.32-.06-1.55-.11-3.07-.17-4.61,0-1.17-.05-2.31-.09-3.47A2.5,2.5,0,0,0,12.3,9.2,2.16,2.16,0,0,0,11,8.77,7.19,7.19,0,0,0,9.8,8.7ZM9.27,23.24c-.16-.75-.33-1.51-.51-2.27,0-.15-.14-.15-.27-.15a7.22,7.22,0,0,1-.93,0c-.23,0-.23.06-.2.24.13.6.26,1.22.4,1.82a1.3,1.3,0,0,1,0,.78c-.6,1.79-1.2,3.61-1.8,5.41a1.08,1.08,0,0,0-.11.5.62.62,0,0,0,.56.6.67.67,0,0,0,.8-.52c.56-1.73,1.14-3.43,1.71-5.16A6.32,6.32,0,0,0,9.27,23.24Zm4.25,4.57a.71.71,0,0,0,.2.51.63.63,0,0,0,.65.18.72.72,0,0,0,.53-.58c.38-1.67.74-3.32,1.13-5a.74.74,0,0,0-.11-.6c-.4-.64-.82-1.27-1.22-1.91-.09-.12-.15-.14-.25,0a1.18,1.18,0,0,1-.88.39c-.25,0-.21.1-.11.26.31.47.6.94.91,1.4a1,1,0,0,1,.17.87c-.2.83-.38,1.67-.58,2.5C13.81,26.5,13.66,27.16,13.52,27.81ZM5.09,11.62V11.4c0-.34,0-.34-.33-.18l-1.19.67a.9.9,0,0,0-.4.46l-1.37,3c-.14.34-.31.67-.45,1a.41.41,0,0,0,.18.57.44.44,0,0,0,.56-.11,1.25,1.25,0,0,0,.15-.28c.47-1.05,1-2.1,1.42-3.15a1.75,1.75,0,0,1,1-1.11C5,12.15,5.18,12,5.09,11.62Zm9.46-.22c-.07.65,0,1.22.68,1.47a1.16,1.16,0,0,1,.34.22,2.39,2.39,0,0,0,1.89.54c.58-.07,1.18,0,1.76-.05.28,0,.46-.16.46-.45s-.2-.42-.51-.42a14.82,14.82,0,0,0-1.49,0A1.93,1.93,0,0,1,16,12.35a3.3,3.3,0,0,0-.52-.33C15.21,11.8,14.88,11.6,14.55,11.4Z"/></g></mask><mask id="mask-2" x="16.53" y="18.8" width="11" height="11" maskUnits="userSpaceOnUse"><g id="path-2-outside-2_3774_732" data-name="path-2-outside-2 3774 732"><rect class="cls-1" x="16.53" y="18.8" width="11" height="11"/><path d="M22.26,29.21a4.52,4.52,0,0,1-2.55-.76,1.62,1.62,0,0,1-.6-.62.26.26,0,0,0-.11-.15,3,3,0,0,1-1.28-2,3.76,3.76,0,0,1,.16-2.76,5.69,5.69,0,0,1,1-1.67,4.3,4.3,0,0,1,3.28-1.41,7.42,7.42,0,0,1,1.49.2,3.73,3.73,0,0,1,2.15,1.39,10.32,10.32,0,0,1,.76,1.18,4.55,4.55,0,0,1-.89,5.14,9.15,9.15,0,0,1-1.27,1A4.16,4.16,0,0,1,22.26,29.21Zm-3.55-4.76a3.53,3.53,0,0,0,.53,1.95c.13.21.24.23.44.09a7,7,0,0,0,1.65-1.78c.11-.15.15-.37.33-.44s.29.18.47.24.29.25.14.49a8.13,8.13,0,0,1-1.92,2.18c-.26.2-.26.23,0,.4a3.62,3.62,0,0,0,3.25.3.45.45,0,0,0,.33-.59,9.49,9.49,0,0,0-.75-2.07c-.25-.51-.24-.51.2-.84.25-.18.36-.13.49.13a10.78,10.78,0,0,1,.87,2.18c0,.09,0,.2.13.21s.15-.07.2-.12a3.7,3.7,0,0,0,.56-3.56c-.07-.18-.16-.2-.32-.11a5.75,5.75,0,0,1-.78.31c-.55.18-.55.18-.7-.36,0,0,0,0,0-.06-.13-.27,0-.36.23-.43a4.41,4.41,0,0,0,.67-.24c.22-.09.24-.22.08-.38a3.66,3.66,0,0,0-1-.71c-.49-.24-.51-.22-.51.33s0,.65-.65.61c-.26,0-.33-.12-.29-.36a3,3,0,0,0,0-.67c0-.15-.09-.25-.27-.24a3.67,3.67,0,0,0-2.44,1.17c-.16.16-.1.25.1.32a5.48,5.48,0,0,0,1.12.31c.64.11.62.11.6.71,0,.25-.13.31-.36.27a7.51,7.51,0,0,1-1.89-.49c-.18-.09-.27-.05-.35.15A7.07,7.07,0,0,0,18.71,24.45Z"/></g></mask></defs><path class="cls-2" d="M9.8,8.7H8.71a2.41,2.41,0,0,0-2.47,2.54c0,1.23,0,2.48.09,3.72,0,.45-.19.71-.55.71s-.54-.26-.56-.67l-.06-1.42c0-.07,0-.16,0-.18a.21.21,0,0,0-.22.11,2,2,0,0,0-.18.36C4.2,15,3.71,16.1,3.2,17.21a1.56,1.56,0,0,1-2,.85,1.5,1.5,0,0,1-.86-2c.64-1.47,1.29-2.91,2-4.36A1.49,1.49,0,0,1,2.93,11q1.14-.66,2.31-1.29a1.21,1.21,0,0,0,.4-.38,3.56,3.56,0,0,1,3.1-1.75,16.6,16.6,0,0,1,2.73.06A3.42,3.42,0,0,1,14.12,9.6a1.43,1.43,0,0,0,.54.6l2.13,1.33a.72.72,0,0,0,.38.13c.51,0,1,0,1.54,0a2,2,0,0,1,1.38.25,1.55,1.55,0,0,1-.74,2.85c-.93,0-1.85.06-2.8.08a1.53,1.53,0,0,1-.81-.26L14.86,14c-.18-.11-.25-.09-.25.12,0,.37,0,.73,0,1.09,0,1,.07,2.05.11,3.07a.67.67,0,0,0,.14.4c.64,1,1.27,2,1.91,3a2.1,2.1,0,0,1,.31,1.69c-.38,1.65-.75,3.3-1.13,4.95a1.8,1.8,0,1,1-3.52-.8c.29-1.34.6-2.68.91-4a.72.72,0,0,0-.11-.62L12.1,21.1a.4.4,0,0,0-.38-.22H10.14c-.2,0-.27.05-.22.27.13.53.22,1.05.35,1.58a2.41,2.41,0,0,1-.07,1.43q-.82,2.4-1.6,4.8c-.13.38-.24.74-.37,1.12a1.78,1.78,0,0,1-2.29,1.2A1.81,1.81,0,0,1,4.8,29c.44-1.38.84-2.78,1.38-4.13a4.72,4.72,0,0,0,.11-3.39c0-.18-.09-.36-.13-.54a2.52,2.52,0,0,0-.51-1.28,1.59,1.59,0,0,1-.32-.83.59.59,0,0,1,.42-.71.57.57,0,0,1,.67.44,1.65,1.65,0,0,0,.2.52,1.35,1.35,0,0,0,1.2.69H13.3c.24,0,.33-.07.33-.32-.06-1.55-.11-3.07-.17-4.61,0-1.17-.05-2.31-.09-3.47A2.5,2.5,0,0,0,12.3,9.2,2.16,2.16,0,0,0,11,8.77,7.19,7.19,0,0,0,9.8,8.7ZM9.27,23.24c-.16-.75-.33-1.51-.51-2.27,0-.15-.14-.15-.27-.15a7.22,7.22,0,0,1-.93,0c-.23,0-.23.06-.2.24.13.6.26,1.22.4,1.82a1.3,1.3,0,0,1,0,.78c-.6,1.79-1.2,3.61-1.8,5.41a1.08,1.08,0,0,0-.11.5.62.62,0,0,0,.56.6.67.67,0,0,0,.8-.52c.56-1.73,1.14-3.43,1.71-5.16A6.32,6.32,0,0,0,9.27,23.24Zm4.25,4.57a.71.71,0,0,0,.2.51.63.63,0,0,0,.65.18.72.72,0,0,0,.53-.58c.38-1.67.74-3.32,1.13-5a.74.74,0,0,0-.11-.6c-.4-.64-.82-1.27-1.22-1.91-.09-.12-.15-.14-.25,0a1.18,1.18,0,0,1-.88.39c-.25,0-.21.1-.11.26.31.47.6.94.91,1.4a1,1,0,0,1,.17.87c-.2.83-.38,1.67-.58,2.5C13.81,26.5,13.66,27.16,13.52,27.81ZM5.09,11.62V11.4c0-.34,0-.34-.33-.18l-1.19.67a.9.9,0,0,0-.4.46l-1.37,3c-.14.34-.31.67-.45,1a.41.41,0,0,0,.18.57.44.44,0,0,0,.56-.11,1.25,1.25,0,0,0,.15-.28c.47-1.05,1-2.1,1.42-3.15a1.75,1.75,0,0,1,1-1.11C5,12.15,5.18,12,5.09,11.62Zm9.46-.22c-.07.65,0,1.22.68,1.47a1.16,1.16,0,0,1,.34.22,2.39,2.39,0,0,0,1.89.54c.58-.07,1.18,0,1.76-.05.28,0,.46-.16.46-.45s-.2-.42-.51-.42a14.82,14.82,0,0,0-1.49,0A1.93,1.93,0,0,1,16,12.35a3.3,3.3,0,0,0-.52-.33C15.21,11.8,14.88,11.6,14.55,11.4Z"/><g class="cls-3"><path class="cls-4" d="M9.8,8.7H8.71a2.41,2.41,0,0,0-2.47,2.54c0,1.23,0,2.48.09,3.72,0,.45-.19.71-.55.71s-.54-.26-.56-.67l-.06-1.42c0-.07,0-.16,0-.18a.21.21,0,0,0-.22.11,2,2,0,0,0-.18.36C4.2,15,3.71,16.1,3.2,17.21a1.56,1.56,0,0,1-2,.85,1.5,1.5,0,0,1-.86-2c.64-1.47,1.29-2.91,2-4.36A1.49,1.49,0,0,1,2.93,11q1.14-.66,2.31-1.29a1.21,1.21,0,0,0,.4-.38,3.56,3.56,0,0,1,3.1-1.75,16.6,16.6,0,0,1,2.73.06A3.42,3.42,0,0,1,14.12,9.6a1.43,1.43,0,0,0,.54.6l2.13,1.33a.72.72,0,0,0,.38.13c.51,0,1,0,1.54,0a2,2,0,0,1,1.38.25,1.55,1.55,0,0,1-.74,2.85c-.93,0-1.85.06-2.8.08a1.53,1.53,0,0,1-.81-.26L14.86,14c-.18-.11-.25-.09-.25.12,0,.37,0,.73,0,1.09,0,1,.07,2.05.11,3.07a.67.67,0,0,0,.14.4c.64,1,1.27,2,1.91,3a2.1,2.1,0,0,1,.31,1.69c-.38,1.65-.75,3.3-1.13,4.95a1.8,1.8,0,1,1-3.52-.8c.29-1.34.6-2.68.91-4a.72.72,0,0,0-.11-.62L12.1,21.1a.4.4,0,0,0-.38-.22H10.14c-.2,0-.27.05-.22.27.13.53.22,1.05.35,1.58a2.41,2.41,0,0,1-.07,1.43q-.82,2.4-1.6,4.8c-.13.38-.24.74-.37,1.12a1.78,1.78,0,0,1-2.29,1.2A1.81,1.81,0,0,1,4.8,29c.44-1.38.84-2.78,1.38-4.13a4.72,4.72,0,0,0,.11-3.39c0-.18-.09-.36-.13-.54a2.52,2.52,0,0,0-.51-1.28,1.59,1.59,0,0,1-.32-.83.59.59,0,0,1,.42-.71.57.57,0,0,1,.67.44,1.65,1.65,0,0,0,.2.52,1.35,1.35,0,0,0,1.2.69H13.3c.24,0,.33-.07.33-.32-.06-1.55-.11-3.07-.17-4.61,0-1.17-.05-2.31-.09-3.47A2.5,2.5,0,0,0,12.3,9.2,2.16,2.16,0,0,0,11,8.77,7.19,7.19,0,0,0,9.8,8.7ZM9.27,23.24c-.16-.75-.33-1.51-.51-2.27,0-.15-.14-.15-.27-.15a7.22,7.22,0,0,1-.93,0c-.23,0-.23.06-.2.24.13.6.26,1.22.4,1.82a1.3,1.3,0,0,1,0,.78c-.6,1.79-1.2,3.61-1.8,5.41a1.08,1.08,0,0,0-.11.5.62.62,0,0,0,.56.6.67.67,0,0,0,.8-.52c.56-1.73,1.14-3.43,1.71-5.16A6.32,6.32,0,0,0,9.27,23.24Zm4.25,4.57a.71.71,0,0,0,.2.51.63.63,0,0,0,.65.18.72.72,0,0,0,.53-.58c.38-1.67.74-3.32,1.13-5a.74.74,0,0,0-.11-.6c-.4-.64-.82-1.27-1.22-1.91-.09-.12-.15-.14-.25,0a1.18,1.18,0,0,1-.88.39c-.25,0-.21.1-.11.26.31.47.6.94.91,1.4a1,1,0,0,1,.17.87c-.2.83-.38,1.67-.58,2.5C13.81,26.5,13.66,27.16,13.52,27.81ZM5.09,11.62V11.4c0-.34,0-.34-.33-.18l-1.19.67a.9.9,0,0,0-.4.46l-1.37,3c-.14.34-.31.67-.45,1a.41.41,0,0,0,.18.57.44.44,0,0,0,.56-.11,1.25,1.25,0,0,0,.15-.28c.47-1.05,1-2.1,1.42-3.15a1.75,1.75,0,0,1,1-1.11C5,12.15,5.18,12,5.09,11.62Zm9.46-.22c-.07.65,0,1.22.68,1.47a1.16,1.16,0,0,1,.34.22,2.39,2.39,0,0,0,1.89.54c.58-.07,1.18,0,1.76-.05.28,0,.46-.16.46-.45s-.2-.42-.51-.42a14.82,14.82,0,0,0-1.49,0A1.93,1.93,0,0,1,16,12.35a3.3,3.3,0,0,0-.52-.33C15.21,11.8,14.88,11.6,14.55,11.4Z"/></g><path class="cls-2" d="M22.26,29.21a4.52,4.52,0,0,1-2.55-.76,1.62,1.62,0,0,1-.6-.62.26.26,0,0,0-.11-.15,3,3,0,0,1-1.28-2,3.76,3.76,0,0,1,.16-2.76,5.69,5.69,0,0,1,1-1.67,4.3,4.3,0,0,1,3.28-1.41,7.42,7.42,0,0,1,1.49.2,3.73,3.73,0,0,1,2.15,1.39,10.32,10.32,0,0,1,.76,1.18,4.55,4.55,0,0,1-.89,5.14,9.15,9.15,0,0,1-1.27,1A4.16,4.16,0,0,1,22.26,29.21Zm-3.55-4.76a3.53,3.53,0,0,0,.53,1.95c.13.21.24.23.44.09a7,7,0,0,0,1.65-1.78c.11-.15.15-.37.33-.44s.29.18.47.24.29.25.14.49a8.13,8.13,0,0,1-1.92,2.18c-.26.2-.26.23,0,.4a3.62,3.62,0,0,0,3.25.3.45.45,0,0,0,.33-.59,9.49,9.49,0,0,0-.75-2.07c-.25-.51-.24-.51.2-.84.25-.18.36-.13.49.13a10.78,10.78,0,0,1,.87,2.18c0,.09,0,.2.13.21s.15-.07.2-.12a3.7,3.7,0,0,0,.56-3.56c-.07-.18-.16-.2-.32-.11a5.75,5.75,0,0,1-.78.31c-.55.18-.55.18-.7-.36,0,0,0,0,0-.06-.13-.27,0-.36.23-.43a4.41,4.41,0,0,0,.67-.24c.22-.09.24-.22.08-.38a3.66,3.66,0,0,0-1-.71c-.49-.24-.51-.22-.51.33s0,.65-.65.61c-.26,0-.33-.12-.29-.36a3,3,0,0,0,0-.67c0-.15-.09-.25-.27-.24a3.67,3.67,0,0,0-2.44,1.17c-.16.16-.1.25.1.32a5.48,5.48,0,0,0,1.12.31c.64.11.62.11.6.71,0,.25-.13.31-.36.27a7.51,7.51,0,0,1-1.89-.49c-.18-.09-.27-.05-.35.15A7.07,7.07,0,0,0,18.71,24.45Z"/><g class="cls-5"><path class="cls-2" d="M19.71,28.45l.11-.17h0Zm-.6-.62-.19.06h0ZM19,27.68l.12-.16h0Zm-1.28-2-.2.06h0Zm.16-2.76.18.09h0Zm1-1.67-.15-.14h0Zm3.28-1.41v-.2h0Zm1.49.2,0,.19h0Zm2.15,1.39-.16.12h0Zm.76,1.18-.18.1h0Zm-.89,5.14.13.15h0Zm-1.27,1,.1.17Zm-5.71-4.25h0Zm.53,1.95.17-.11h0Zm.44.09.11.16h0Zm1.65-1.78-.16-.12h0Zm.33-.44.07.19h0Zm.47.24-.06.19h0Zm.14.49-.17-.11h0Zm-1.92,2.18.12.15h0Zm0,.4-.11.17h0Zm3.25.3-.07-.18h0Zm.33-.59.19,0h0Zm-.75-2.07.18-.09h0Zm.2-.84-.12-.16h0Zm.49.13-.18.09h0Zm.87,2.18.2,0h0Zm.13.21,0-.19h0Zm.2-.12.14.14h0Zm.56-3.56-.18.07h0Zm-.32-.11.09.18h0Zm-1.48-.05h-.2v.05Zm0-.06H24v0l0,0Zm.23-.43,0-.2h0Zm-.27-1.33-.09.18h0Zm-1.16.94,0,.2h0Zm-.33-1,.2,0h0ZM22,20.91l0,.2h0ZM19.6,22.08l.15.14h0Zm.1.32.07-.18h0Zm1.12.31,0,.2h0Zm.6.71h0Zm-.36.27,0-.2h0Zm-1.89-.49-.09.18h0Zm-.35.15-.18-.07v0ZM22.26,29a4.29,4.29,0,0,1-2.44-.73l-.22.33a4.73,4.73,0,0,0,2.66.8Zm-2.44-.73a1.32,1.32,0,0,1-.52-.53l-.37.16a1.67,1.67,0,0,0,.68.71Zm-.52-.51a.49.49,0,0,0-.18-.25l-.23.33s0,0,0,0Zm-.2-.26a2.86,2.86,0,0,1-1.19-1.92l-.39.12a3.27,3.27,0,0,0,1.39,2.15ZM17.91,25.6A3.64,3.64,0,0,1,18.06,23l-.36-.17a4,4,0,0,0-.18,2.9ZM18.06,23a5.66,5.66,0,0,1,1-1.62l-.29-.28a6,6,0,0,0-1.05,1.73Zm1-1.62A4.11,4.11,0,0,1,22.18,20v-.4a4.5,4.5,0,0,0-3.44,1.47ZM22.18,20a7.12,7.12,0,0,1,1.45.19l.09-.39a7.92,7.92,0,0,0-1.53-.2Zm1.45.19a3.5,3.5,0,0,1,2,1.32l.32-.24a3.9,3.9,0,0,0-2.26-1.47Zm2,1.32a8.16,8.16,0,0,1,.74,1.16l.36-.19A10.46,10.46,0,0,0,26,21.28Zm.74,1.16a4.07,4.07,0,0,1,.35,2.58,4,4,0,0,1-1.19,2.31l.26.3a4.36,4.36,0,0,0,1.32-2.54,4.5,4.5,0,0,0-.38-2.84Zm-.84,4.89a8.67,8.67,0,0,1-1.25,1l.21.34a10,10,0,0,0,1.3-1Zm-1.25,1a3.87,3.87,0,0,1-2,.48v.4a4.3,4.3,0,0,0,2.26-.54Zm-5.8-4.08a3.7,3.7,0,0,0,.56,2.05l.34-.21a3.27,3.27,0,0,1-.5-1.83Zm.56,2.05a.51.51,0,0,0,.32.27.53.53,0,0,0,.4-.12l-.23-.33a.27.27,0,0,1-.09.06h0s0,0,0,0l-.06-.09Zm.72.15a7.41,7.41,0,0,0,1.71-1.83l-.34-.22a6.75,6.75,0,0,1-1.6,1.73Zm1.7-1.82a.85.85,0,0,0,.09-.15,1.33,1.33,0,0,0,.06-.12.22.22,0,0,1,.09-.1l-.15-.37a.57.57,0,0,0-.29.28l-.07.13a.36.36,0,0,1,0,.09Zm.25-.38a0,0,0,0,1,0,0l.05,0,0,.05.07.06a.56.56,0,0,0,.19.11l.12-.38-.05,0-.05,0-.06,0a.51.51,0,0,0-.18-.12.4.4,0,0,0-.28,0Zm.33.25a.27.27,0,0,1,.11.05h0s0,0,0,0a.4.4,0,0,1-.07.12l.34.21a1.28,1.28,0,0,0,.11-.2.43.43,0,0,0-.36-.58Zm0,.19A7.76,7.76,0,0,1,20.23,27l.24.31a8.43,8.43,0,0,0,2-2.23ZM20.23,27l-.17.14a.38.38,0,0,0-.1.24.33.33,0,0,0,.12.22,1.18,1.18,0,0,0,.18.13l.21-.35-.08,0-.05,0s0,0,0,0a.08.08,0,0,1,0,.06.35.35,0,0,1,0,.06h0l0,0,.07-.07Zm0,.73a3.82,3.82,0,0,0,3.43.32l-.14-.37a3.42,3.42,0,0,1-3.08-.3Zm3.43.32a.7.7,0,0,0,.41-.32.77.77,0,0,0,0-.5l-.39.07a.44.44,0,0,1,0,.25.36.36,0,0,1-.19.13Zm.45-.83a9.84,9.84,0,0,0-.76-2.11L23,25.3a9.29,9.29,0,0,1,.73,2Zm-.76-2.11a1.92,1.92,0,0,1-.13-.28c0-.06,0-.07,0-.07s0,0,0-.05.13-.1.24-.19l-.24-.32-.27.21a.57.57,0,0,0-.16.25.44.44,0,0,0,0,.3,3.54,3.54,0,0,0,.14.33Zm.14-.59a.41.41,0,0,1,.11-.06s0,0,0,0,0,0,0,0a.54.54,0,0,1,.07.12l.36-.18a.55.55,0,0,0-.32-.33.54.54,0,0,0-.47.13Zm.19.06a10.64,10.64,0,0,1,.86,2.14l.39-.1a10.73,10.73,0,0,0-.89-2.22Zm.86,2.13v.05s0,.06,0,.11a.33.33,0,0,0,.09.14.36.36,0,0,0,.17.07l.06-.39h0s0,0,0,0a0,0,0,0,1,0,0h0v0s0,0,0-.05Zm.28.37a.3.3,0,0,0,.28-.08L25.2,27l0,0L25,26.64l0,0h0l0,0h0s0,0,.05,0Zm.39-.19A3.68,3.68,0,0,0,26,25.09a3.47,3.47,0,0,0-.2-2l-.36.17A3.06,3.06,0,0,1,25.64,25a3.21,3.21,0,0,1-.7,1.61Zm.6-3.77a.41.41,0,0,0-.26-.27.46.46,0,0,0-.35.07l.19.34.06,0h0s0,0,0,0h0v0l0,0Zm-.6-.21a5.72,5.72,0,0,1-.76.3l.13.38a6.8,6.8,0,0,0,.81-.32Zm-.76.3-.29.09c-.07,0-.07,0-.05,0s0,0,0,0,0-.14-.08-.29l-.39.11.1.33a.43.43,0,0,0,.2.25.48.48,0,0,0,.31,0l.34-.1Zm-.43-.17A.22.22,0,0,0,24,23s0,0,0,0,0,0,0,0A.35.35,0,0,1,24,23h-.4a.54.54,0,0,0,0,.08l0,0h0a.43.43,0,0,1,0-.05Zm0-.14a.29.29,0,0,1,0-.11h0l0,0,.13,0L24,22.37l-.2.08a.5.5,0,0,0-.18.15.48.48,0,0,0,0,.49Zm.1-.16a4.42,4.42,0,0,0,.7-.25l-.15-.37a3.54,3.54,0,0,1-.64.23Zm.7-.25a.39.39,0,0,0,.14-.7l-.28.28.05.06s0,0,0,0,0,0,0,0l-.07,0Zm.14-.7a3.82,3.82,0,0,0-1.07-.75l-.18.36a3.5,3.5,0,0,1,1,.67Zm-1.07-.75-.31-.14a.43.43,0,0,0-.33,0,.41.41,0,0,0-.15.29,3.33,3.33,0,0,0,0,.34h.4a2.11,2.11,0,0,1,0-.29v0h0a.12.12,0,0,1,0,0l0,0h0a1.13,1.13,0,0,1,.26.11Zm-.8.51a3.13,3.13,0,0,1,0,.35c0,.08,0,.08,0,.07H23l-.35,0,0,.4a2.83,2.83,0,0,0,.4,0,.46.46,0,0,0,.32-.11.5.5,0,0,0,.13-.31c0-.11,0-.24,0-.4Zm-.44.41c-.11,0-.12,0-.11,0s0,0,0-.11l-.39-.06a.58.58,0,0,0,.07.42.56.56,0,0,0,.4.17Zm-.11-.13a1.29,1.29,0,0,0,0-.39,1.11,1.11,0,0,1,0-.17,1,1,0,0,1,0-.16l-.4,0c0,.06,0,.11,0,.17a.88.88,0,0,1,0,.16,1.4,1.4,0,0,1,0,.29Zm0-.73a.54.54,0,0,0-.13-.29.44.44,0,0,0-.36-.12l0,.4h0a.43.43,0,0,1,0,.05ZM22,20.71a3.85,3.85,0,0,0-2.56,1.23l.29.27a3.47,3.47,0,0,1,2.31-1.1Zm-2.56,1.22a.42.42,0,0,0-.14.41.4.4,0,0,0,.14.17l.17.08.13-.38-.05,0h0a0,0,0,0,1,0,0v0a0,0,0,0,1,0,0v0l0,0Zm.16.66a7.16,7.16,0,0,0,1.16.32l.08-.4a6.47,6.47,0,0,1-1.09-.29Zm1.17.32a2.14,2.14,0,0,1,.34.07c.08,0,.08,0,.08,0s0,0,0,.07a1.77,1.77,0,0,1,0,.33h.4a2.15,2.15,0,0,0,0-.36.48.48,0,0,0-.1-.31.53.53,0,0,0-.28-.16l-.38-.08Zm.43.49c0,.11,0,.11,0,.1s0,0,0,0h-.1l-.06.4a.52.52,0,0,0,.4-.06.5.5,0,0,0,.19-.4Zm-.14.09A7.34,7.34,0,0,1,19.25,23l-.16.36a7.31,7.31,0,0,0,1.94.51ZM19.26,23a.45.45,0,0,0-.38,0,.44.44,0,0,0-.24.3l.37.13a.26.26,0,0,0,0-.07s0,0,0,0h0l.07,0Zm-.63.3a6.12,6.12,0,0,0-.12,1.14l.4,0A6.17,6.17,0,0,1,19,23.37Z"/></g><path class="cls-6" d="M13.37,3.69h0a3.57,3.57,0,0,0-7.13-.06,3.57,3.57,0,0,0,7.13.06ZM9.81,1.43A2.18,2.18,0,0,1,12,3.68,2.2,2.2,0,0,1,9.78,5.87,2.17,2.17,0,0,1,7.57,3.61,2.2,2.2,0,0,1,9.81,1.43Z"/></svg>