<svg id="Layer_1" data-name="Layer 1" xmlns="http://www.w3.org/2000/svg" viewBox="0 0 248.68 45.61"><path d="M35.61,8.83V0H9L0,8.93V35.7H9V9.05H35.64V35.73H9v9.08H35.89l8.83-9v-27Z"/><path d="M86.43.09H72.25L57.4,44.81h7.38Q66.91,38,69.05,31.29H89.58Q91.77,38,94,44.81h7.14Q93.76,22.46,86.43.09ZM70.88,25.7q3.32-10,6.62-20.06h3.72q3.27,10,6.53,20.06Z"/><path d="M104.22,11.05h-7q5.55,16.89,11.08,33.76h9.52l8.4-25.24q4.15,12.63,8.33,25.24h9.58q5.53-16.87,11.08-33.76h-6.7q-4.51,14.22-9,28.44l-9.7-28.44H123L113.3,39.43Q108.77,25.24,104.22,11.05Z"/><path d="M185.17,14.19a10.32,10.32,0,0,0-6.6-3.82,22.7,22.7,0,0,0-14.16,1.31A10.48,10.48,0,0,0,159.75,16a10.37,10.37,0,0,0-1.29,5.45h6.64a7.16,7.16,0,0,1,2.11-4.5,6.78,6.78,0,0,1,2.71-1.57,11.82,11.82,0,0,1,3.08-.32,13.51,13.51,0,0,1,3.81.2,5.65,5.65,0,0,1,2.55,1.36,4.38,4.38,0,0,1,.41.45,5.32,5.32,0,0,1,1,2.22,4.14,4.14,0,0,1-.67,2.9,4.46,4.46,0,0,1-3.68,1.71l-8.62,1.44c-.72,0-5.66.39-8.48,4.46a10,10,0,0,0-1.69,4.59,10,10,0,0,0,3.87,9.4,9.87,9.87,0,0,0,7,1.65A12,12,0,0,0,181,37.24v7.57h6.29V20.45A10.21,10.21,0,0,0,185.17,14.19Zm-4.41,15.92a18.45,18.45,0,0,1-.78,3.38,9.55,9.55,0,0,1-7,6.37c-3.31,1-6.44.32-7.84-1.65a4.41,4.41,0,0,1-.8-2.23,5.4,5.4,0,0,1,.63-3.17,5.77,5.77,0,0,1,3.85-2.72l7.12-1.69a14.2,14.2,0,0,0,2.64-.81,13.64,13.64,0,0,0,2.32-1.24A19,19,0,0,1,180.76,30.11Z"/><path d="M193.54,44.81h6.76V17.13h13V11.18H200l-6.52,6.51Q193.5,31.25,193.54,44.81Z"/><path d="M240.28,37.93a7.88,7.88,0,0,1-3.76,2,14.47,14.47,0,0,1-4.18.49,14.3,14.3,0,0,1-4.14-.73,7.65,7.65,0,0,1-5-4.79c-.24-.79-.46-1.63-.66-2.51-.24-1-.42-2-.56-3h26.49a18.69,18.69,0,0,0-2.14-12.12,17.33,17.33,0,0,0-3.69-4.41,17.29,17.29,0,0,0-5.08-2.55,18.13,18.13,0,0,0-8.63-.51A14.56,14.56,0,0,0,217,19.26a22.29,22.29,0,0,0,0,17A14.56,14.56,0,0,0,221.34,42a14.82,14.82,0,0,0,7,3.06,20.51,20.51,0,0,0,8.29.16,20.2,20.2,0,0,0,8-3.41,13.3,13.3,0,0,0,2.87-4.07,12.9,12.9,0,0,0,1-3.54h-6.15A7.84,7.84,0,0,1,240.28,37.93ZM222.94,20.62a12.85,12.85,0,0,1,2.12-3.43A12.12,12.12,0,0,1,229.63,15a12.28,12.28,0,0,1,6.79.34,8.79,8.79,0,0,1,2.94,1.84,10.08,10.08,0,0,1,2.84,7.51H222A13,13,0,0,1,222.94,20.62Z"/></svg>