<svg id="Layer_1" data-name="Layer 1" xmlns="http://www.w3.org/2000/svg" viewBox="0 0 229.39 48.31"><path d="M1.15,43.26c0,4.08,2.29,5.05,6.13,5.05h6.89c4.28,0,5.13-1.85,5.13-4.19V42.81H15c0,1.72-.58,1.92-2.5,1.92H8c-2,0-2.44-.77-2.44-2.79v-1.5c0-1.73.42-2.79,2.67-2.79h4.65c1.27,0,2,.29,2,1.29v.38h4.27c0-3.94-.75-5.25-6.82-5.25h-5c-3.84,0-6.13,1-6.13,5Z"/><path d="M23.71,43.26c0,4.08,2.29,5.05,6.14,5.05H36.7c3.85,0,6.14-1,6.14-5.05V39.11c0-4.08-2.3-5-6.14-5H29.85c-3.85,0-6.14,1-6.14,5Zm4.38-2.82c0-1.73.43-2.79,2.68-2.79h5c2.25,0,2.67,1.06,2.67,2.79v1.5c0,2-.42,2.79-2.44,2.79H30.54c-2,0-2.45-.77-2.45-2.79Z"/><path d="M52,37.68h6.67c1.35,0,2,.23,2,1.47v.46c0,1-.42,1.46-1.58,1.46H52ZM47.75,48.15H52V44.53h6.71c1.33,0,1.75.49,1.75,1.95v1.67h4.27V45.78c0-2.29-1.06-2.84-2.33-3.07v0c2-.46,2.39-1.56,2.39-3.43v-.88c0-2.5-.89-4.13-4.18-4.13H47.75Z"/><path d="M70.17,48.15h4.27v-3.5h8.49c3,0,3.93-2.39,3.93-4.47V39c0-2.73-1-4.77-5-4.77H70.17Zm4.27-10.46h6.27c1.29,0,1.75.54,1.75,1.48v.54a1.3,1.3,0,0,1-1.37,1.48H74.44Z"/><path d="M91,43.26c0,4.08,2.3,5.05,6.14,5.05H104c3.85,0,6.13-1,6.13-5.05V39.11c0-4.08-2.29-5-6.13-5H97.12c-3.84,0-6.14,1-6.14,5Zm4.39-2.82c0-1.73.42-2.79,2.67-2.79h5c2.25,0,2.68,1.06,2.68,2.79v1.5c0,2-.43,2.79-2.44,2.79H97.81c-2,0-2.44-.77-2.44-2.79Z"/><path d="M118.83,37.68h6.67c1.35,0,2,.23,2,1.47v.46c0,1-.43,1.46-1.58,1.46h-7.06Zm-4.27,10.47h4.27V44.53h6.71c1.33,0,1.75.49,1.75,1.95v1.67h4.27V45.78c0-2.29-1.05-2.84-2.33-3.07v0c2-.46,2.39-1.56,2.39-3.43v-.88c0-2.5-.88-4.13-4.17-4.13H114.56Z"/><path d="M145.33,37.45l2.77,5.24h-5.47Zm-2.77-3.23L135,48.15h4.78L141,45.69h8.66L151,48.15h4.75l-7.65-13.93Z"/><polygon points="156.3 34.22 156.3 37.69 162.3 37.69 162.3 48.15 166.57 48.15 166.57 37.69 172.57 37.69 172.57 34.22 156.3 34.22"/><rect x="176.54" y="34.22" width="4.27" height="13.93"/><path d="M185.61,43.26c0,4.08,2.29,5.05,6.13,5.05h6.84c3.85,0,6.14-1,6.14-5.05V39.11c0-4.08-2.29-5-6.14-5h-6.84c-3.84,0-6.13,1-6.13,5ZM190,40.44c0-1.73.42-2.79,2.67-2.79h5c2.25,0,2.67,1.06,2.67,2.79v1.5c0,2-.42,2.79-2.45,2.79h-5.46c-2,0-2.44-.77-2.44-2.79Z"/><polygon points="223.99 34.22 223.99 44.34 223.94 44.34 215.93 34.22 209.31 34.22 209.31 48.15 213.58 48.15 213.58 38.03 213.62 38.03 221.63 48.15 228.25 48.15 228.25 34.22 223.99 34.22"/><path d="M0,18.4c0,8.15,4.59,10.09,12.27,10.09H22.55c9.62,0,13.78-.38,13.78-8.39V12.16H17.16v5.77H27.78v.81c0,2.69-2.23,3-4.46,3H14.2c-4.31,0-5.43-1-5.43-5.81V12.51c0-4.78,1.12-5.81,5.43-5.81h9.27c2.74,0,4.31.34,4.31,3.11h8.4V8.93c0-5.43-1.35-8.93-11-8.93H12.28C4.59,0,0,1.92,0,10.09Z"/><polygon points="41.38 0.31 41.38 28.17 72.36 28.17 72.36 21.47 49.93 21.47 49.93 17.01 70.71 17.01 70.71 11.24 49.93 11.24 49.93 6.77 71.86 6.77 71.86 0.31 41.38 0.31"/><polygon points="105.99 0.31 105.99 20.55 105.91 20.55 89.87 0.31 76.63 0.31 76.63 28.17 85.17 28.17 85.17 7.93 85.25 7.93 101.3 28.17 114.53 28.17 114.53 0.31 105.99 0.31"/><polygon points="118.2 0.31 118.2 7.23 130.21 7.23 130.21 28.17 138.75 28.17 138.75 7.23 150.75 7.23 150.75 0.31 118.2 0.31"/><polygon points="154.55 0.31 154.55 28.17 185.53 28.17 185.53 21.47 163.09 21.47 163.09 17.01 183.87 17.01 183.87 11.24 163.09 11.24 163.09 6.77 185.02 6.77 185.02 0.31 154.55 0.31"/><polygon points="217.39 0.31 208.73 10.04 200.07 0.31 189.03 0.31 201.73 14.2 188.07 28.17 199.53 28.17 208.73 18.05 217.93 28.17 229.4 28.17 215.73 14.2 228.43 0.31 217.39 0.31"/></svg>