<svg id="Layer_1" data-name="Layer 1" xmlns="http://www.w3.org/2000/svg" viewBox="0 0 54.09 72.01"><defs><style>.cls-1,.cls-2,.cls-3{fill:none;stroke:#fff;}.cls-1{stroke-miterlimit:10;}.cls-1,.cls-3{stroke-width:2px;}.cls-2,.cls-3{stroke-linecap:round;stroke-linejoin:round;}.cls-2{stroke-width:4px;}</style></defs><circle class="cls-1" cx="27.15" cy="27.12" r="16.96"/><polyline class="cls-2" points="17.53 27.07 24.64 33.82 35.9 23.45"/><path class="cls-3" d="M40.5,47.23s7.26,1.41,6.81-5.93c0,0-.64-3.13,3.81-4.85,0,0,4-2.32.41-7.81,0,0-1.91-1.66,1-5.19,0,0,2.61-4-3.23-6.89,0,0-2.66-.47-2.22-5.27,0,0-.36-5.39-6.3-4.34A3.91,3.91,0,0,1,36.87,3.9s-2.11-5-7.14-1.89c0,0-2.31,3.05-6.36-.36,0,0-4.2-1.95-6.25,2.16,0,0,.16,3.84-6.67,3.11,0,0-4.19.45-3.78,5.75a5.09,5.09,0,0,1-4,5.28s-3.64,3,0,7.31c0,0,2,1.44-1.14,5.55,0,0-1.83,3.69,2.3,6.11,0,0,3.75,1.39,3.17,6.2a5,5,0,0,0,6.22,4.22S16,46.29,17.7,51.23c0,0,3.55,4,6.92.64,0,0,1.88-2,5.47.53,1.48,1.06,4.79,2.22,7-2.06C37.09,50.34,38.35,46.62,40.5,47.23Z"/><polyline class="cls-3" points="10.42 51.74 4.98 64.12 15.48 61.12 19.7 71.01 27.92 55.79"/><polyline class="cls-3" points="29.02 62.56 33.76 71.01 38.39 62.23 48.59 64.73 43.59 52.23"/></svg>