<svg id="layer" xmlns="http://www.w3.org/2000/svg" viewBox="0 0 297.77 43"><defs><style>.cls-1{fill:#333e48;}</style></defs><path class="cls-1" d="M269.55,25.73h0a1.77,1.77,0,0,0,.3.05c.15,0,.15.1.15.1l.05.2s.2.05.25.14-.05.1-.1.1-.2,0-.2,0l.1.2-.2.1-.3-.1.1.15-.1.1s-.45-.15-.45-.2-.09-.1-.09-.1l-.35.05.05-.15.34-.1a2.08,2.08,0,0,1,.3-.1c.05,0-.25-.09-.25-.14s-.09-.1-.09-.1H269l-.3.15.1.05-.2.19a.62.62,0,0,1-.15.1c-.15,0-.25,0-.35,0H268c-.05.05-.1.05-.2.1l.1-.05h.15l.1.1.1.05a.22.22,0,0,1-.15,0h-.25l-.19.05.05-.1h-.1c-.4.25-.8.55-1.2.84v.1h.2l.3.1.1.05h.25l0,.1-.05.15v.15l.1.05.2-.15v-.2a1.65,1.65,0,0,0,.29-.1,1.37,1.37,0,0,0,.25-.2.42.42,0,0,0-.05-.14,2,2,0,0,0,.2-.15c0-.05,0-.2,0-.2s0-.1.1-.15h.35s.1-.05.2,0a.11.11,0,0,1,.1.1h.14l-.09.15-.15.1.15.05.09.05.25-.15.1-.1v.05a9.36,9.36,0,0,1,1.84-1.59l-.15-.25h-.5a8,8,0,0,0-1.09.4m-3.18,3.52.1.05.35-.05.3-.1.1-.15-.25.05-.1.1h-.05l-.35.05Zm.1-.74-.14-.05s-.15,0-.15.05-.1,0-.15.1a1.28,1.28,0,0,0-.25.1l.05.05.2-.05.25-.05.09.1.2-.05.15-.05-.05-.1-.2,0Zm0,.3h-.14l-.25.14-.15.3h.15l.1-.2.19-.2h.15l-.19.15h.14l.1-.05v.1l.15-.05.1-.19-.1,0Zm2.44-.65h0c-.1,0-.1,0-.15.05l-.1.1-.15.1h.05l.3-.05a.3.3,0,0,1,.05-.2m-1.05,11.51h0a.53.53,0,0,0-.1-.29c0-.05,0-.1-.09-.15l-.05-.1s0,0-.05,0l-.15-.15v-.1l-.05-.25v-.49l-.15-.3v-.3l.1-.2-.05-.05V36.9c-.9-.1-1.79-.2-2.73-.35a11.12,11.12,0,0,0,3.32,3.12m-4.21-6.55a6.33,6.33,0,0,0,.79,3c.89.15,1.84.25,2.83.4v-.2l-.1-.1-.05,0a1.6,1.6,0,0,0-.25-.15,1.6,1.6,0,0,1-.25-.15c-.05,0-.15,0-.2-.1a.15.15,0,0,1-.05-.1s-.24-.39-.29-.44-.1-.1-.1-.15-.15-.15-.15-.2l-.15-.1a.5.5,0,0,1-.05-.15s.05-.1.1-.15v-.29S266,34,266,34s.1-.1.15-.15a.72.72,0,0,0,.1-.15c0-.05,0-.2,0-.25a1.6,1.6,0,0,1-.15-.25l-.1-.1h-.1l-.05,0v.05l-.05,0h-.1l-.1,0-.1-.05-.1-.1-.25-.05-.05-.14-.14-.15-.05,0h-.2l-.15-.05h-.1l-.1-.1-.2-.15H264a.5.5,0,0,1-.15.05h-.1a1.86,1.86,0,0,0-.09.74m4.21-3.87h.5c.05-.15.15-.3.2-.44l-.5.24C268.06,29,267.86,29.25,267.86,29.25Zm9.68-2.73h.1v-.1h.15v-.05l.15-.05c-.05-.05-.05-.1-.1-.15l-.15.1a2.17,2.17,0,0,0-.25-.05l-.15.05,0,.1c.05.05.15.15.2.15m1.14,2.73h0a1.32,1.32,0,0,0-.44-.05l.2.05Zm-1.14-.05h-.2v.05h.2m.75,1.54h0c-.1-.05-.1.05-.1.05l.25.4.05.15.14.19a.5.5,0,0,1,.05.15.73.73,0,0,0,.1.2.25.25,0,0,0,.05.15c.05.05.25.35.3.4s.1.05.25.1.15.15.15.15v.05l.15.09v-.24h-.05c-.1,0-.1-.05-.1-.1s-.1-.15-.1-.25a.62.62,0,0,0-.1-.25.18.18,0,0,1-.1-.15c0-.05-.1-.1-.15-.15s-.1-.05-.1-.15-.05-.14-.1-.24a.18.18,0,0,0-.15-.1.15.15,0,0,0-.05-.1c-.1-.15-.15-.25-.24-.4a.39.39,0,0,1-.15.05M280,29.4l.05,0L280,29.3h0a2,2,0,0,1-.54-.05l0,.1.1,0-.1.05v.2l.05.15h.1l.05.05a.53.53,0,0,0,.14,0h.05a1.13,1.13,0,0,0,.2,0l-.05-.1V29.6l-.05-.05v-.1h0v-.1C279.87,29.35,280,29.4,280,29.4Zm7.05.89a.17.17,0,0,1,.1.05s.05.1.1.1.1.1.1.1l.05.05h-.1l.05.1v0h.05a.39.39,0,0,1-.05.15c-.05.1,0,.25-.1.4h0a6.2,6.2,0,0,1,.25,1.68l.05,0v-.05l.05,0v.09l-.05.1-.1,0v.4h0l.1.05h-.1v0h0v.2l.1,0v0h-.1l-.05.1v.1l-.05,0c-.05.24-.1.49-.15.69h.6a0,0,0,0,1,.05,0l-.2,0-.45.05h-.05a5.4,5.4,0,0,1-.45,1.14c.4-.05.75-.15,1.1-.2h0l.1,0a.32.32,0,0,1,.14-.15,1,1,0,0,0,.2-.14.3.3,0,0,1,.2-.05c.05,0,.05.09.05.09l.15,0s-.05,0,0-.05a2,2,0,0,0,.15-.2h.2v-.1l.44.1-.1.15-.09.1.09.09h0l.55-.14v-.15l.15-.25.05,0,.1.25a5,5,0,0,1,.69-.2,4.79,4.79,0,0,0,.45-2,4.46,4.46,0,0,0-.5-2.13,18.43,18.43,0,0,0-2.23-.6v.05h-.05l-.05-.1h-.2l-.1,0-.1,0,.05-.05c-.1,0-.2-.05-.34-.05a0,0,0,0,1-.05.05c0,.05-.2.05-.2.05l-.05-.05v-.1h0c-.2-.05-.4-.05-.55-.1l-.1.1c.1-.05.15-.05.2,0m.85,4.87-.1,0,.1,0,.09.1Zm3.07-.65h.2l.2-.1h0l-.05.1-.1.05-.25-.05ZM289.21,34l.24.1v.05l.1.09.05.05.15-.09.15-.1.05.05.3,0,.35.14.14.1v0l.25.05v.1l-.1.05h.05l.1.15.1,0,.05.1-.1,0-.2-.05-.1-.2-.14-.05-.15.1.05.05-.1,0-.2,0h-.15l-.15-.05h0l.15,0-.05-.1-.1-.15-.15-.05-.25-.1-.1,0v-.1l.1-.09h-.1l-.1-.1h-.09V34l-.05.05Zm-1.2.15.1-.1h.05l-.1.15.05.14.1,0v.1l-.15-.1-.05-.15-.09.05v.3h-.1v-.15l-.1-.15,0-.19.1-.2.19-.05.15,0h.05l-.15.1h-.19l-.05.15.14.1Zm-.19-1.59h.1v.05l-.05,0-.05,0v-.05Zm.29.29-.1.05v-.19l.15.05Zm.05,0h0V33h-.05v-.1Zm.15,2.24-.05,0,.25-.15h0l.05.05Zm.2-2h0l.05,0v.1l-.05.05-.05-.05,0,.05,0,0,0,0h-.05l-.1-.1v-.1h-.15l-.05.1H288l.05-.1h.05v-.05h.1v.05l.1-.05v0l.05,0-.05-.05.1.05Zm-.15-.2h0l-.1,0,.05,0-.05-.05.05,0,.05,0v.05l-.05,0C288.36,32.83,288.36,32.87,288.36,32.87Zm-.1-2.43.1,0,.05.1v.15h-.1v-.15l-.1-.05,0-.05Zm-.25,2,.1.05.1.1,0,0h-.05l-.05-.1H288l.05-.1Zm-.19-.5.1.1h0l0,.1,0,.1-.05,0v.1l.05,0v.1l-.05.05-.05-.1h-.1l-.05-.15h.05v-.25l.1-.15Zm-.2-.64h.1v.05l-.05.19-.05.05-.1-.1v-.09l.1-.1Zm-9.28-2.49-.15-.09s.2-.2.15-.2l-.45.05.05.15-.15,0-.05,0v-.05h-.25l-.05.1-.15.14v.1a10.2,10.2,0,0,1,1.24.05A.51.51,0,0,0,278.34,28.85Zm11.56,6.9h-.1a.07.07,0,0,0,.1,0M268.71,25.33h.1a0,0,0,0,0,.05,0s-.1,0-.15,0m.44,0,.55,0v.1a9.09,9.09,0,0,1,1-.35h0l.3-.1-.89.15-.25.2-.2-.1c-.1,0-.25.05-.35.05Zm-7,2.78h0c0-.05-.05-.3-.05-.3l-.15-.1-.2-.1h-.3c-2.23,1.24-3.77,2.83-4.17,4.57a6.86,6.86,0,0,1,2.58-1.34,7.88,7.88,0,0,1,2.29-2.73m-2.34,7.25A6.72,6.72,0,0,1,257.24,34c.75,3.42,5.76,6.3,12.51,7.34-4.91-1-8.69-3.27-10-6M262,28.51l.1,0s.1,0,.1,0a.17.17,0,0,1-.1-.05l.05-.05c-.05,0-.1.05-.15.1m6.8,12s.15.1.15.15.19.15.19.15a.83.83,0,0,1-.29,0c-.1-.05-.5-.3-.55-.3l-.4-.4c-.05,0-.05,0-.05-.1a10,10,0,0,1-3.62-3.57,31.53,31.53,0,0,1-4.22-.94c1.54,2.92,5.86,5.21,11.37,6a25.83,25.83,0,0,1-2.58-.94Zm21.74-4.67a.11.11,0,0,0,.1.1c.09-.15.19-.35.29-.54l-.44.15v0c.05.1,0,.15.05.25m-28.49-7.19-.1-.1a7.34,7.34,0,0,0-1.84,2.13c.45-.15.89-.25,1.39-.4a0,0,0,0,1-.05-.05l0-.29V29.8a.71.71,0,0,1,.2-.4l.45-.45a.3.3,0,0,0,.1-.19h0l-.15-.1Zm.1,2a.15.15,0,0,0-.1-.05l-.1.1a.73.73,0,0,0,.1.2V31l.1.2v.15l0,.05c0,.05.05.05.05.1l.05,0h-.1l-.15-.14-.05-.05.05-.1a.17.17,0,0,1-.05-.1l-.1-.1a.25.25,0,0,0-.15-.05l.1,0v-.05l-.05-.05v-.1l-.1-.2v-.05a15.34,15.34,0,0,0-1.79.5,4.71,4.71,0,0,0-.49,2.13,5,5,0,0,0,.44,2,29.45,29.45,0,0,0,4.22,1,7,7,0,0,1-.74-3,6.25,6.25,0,0,1,0-.94c-.1,0-.1,0-.15,0a.5.5,0,0,1-.15,0l-.05-.05a.18.18,0,0,1-.15,0l-.15-.05-.1-.1v-.05l.1-.1-.05-.15s-.2-.14-.2-.19l-.1-.1s-.09-.05-.09-.1v-.05c0-.05-.1-.15-.1-.15a2,2,0,0,0-.15-.2c.1-.05.15-.1.1-.15m1.58-4.07.4-.1s.45-.1.5-.1l.05.05.25-.05.09-.05h.15a1.71,1.71,0,0,1,.5-.19c-.05,0-.1,0-.2.09s0-.09-.2-.09c0,0,.1-.1.25-.15a1.46,1.46,0,0,1,.4-.1c.3-.05.3.05.3.05h0A20.57,20.57,0,0,1,269.4,25h.05a.15.15,0,0,0,.1-.05,27,27,0,0,0-5.86,1.59h.05c-.09.05,0,.05,0,.05M275,24.74a2.81,2.81,0,0,1-.4.24.93.93,0,0,0-.1.35,1.37,1.37,0,0,1,0,.2l-.5.2c-.15.05-.3.2-.5.3s-.1,0-.2,0A9.57,9.57,0,0,0,272,29c.55,0,1.1-.05,1.59-.05l-.05-.14h.1l.05-.1h.55c.1,0,.1-.05.1-.05v-.2l-.05-.15-.1-.1-.2-.1v-.05h.1l.05.05.15-.05,0-.1h.15l.1-.05.14-.1a.37.37,0,0,0,.15-.15c.05-.1.25-.1.25-.1l.15,0-.05-.09-.05-.1-.05-.05.2-.1.05.15-.05.15h.1V27l-.2.05h-.2c-.05,0-.1-.1-.1-.1v-.2c-.05-.1.05-.1.1-.15l.2-.1c.1,0,.2-.15.2-.2l.05-.05V24.54a.45.45,0,0,0-.25.05l-.15.15Zm-1.09,2.73-.05,0,.05.15v.05h-.1l-.1.05h-.1l-.1-.05v-.05l.1-.05v-.05h-.05l.05-.09h.1v-.1l.1-.05.1.05h.05v.05c-.05-.05-.05,0-.05,0m.69.29-.1,0,.1.05v.05l-.24.05h-.4l.05-.05,0-.05.05-.05h.1l.05,0H274v-.05l.1-.05v-.05l-.05-.05.05,0,.1,0,0-.09,0,0v-.05a.07.07,0,0,1-.1,0,0,0,0,0,1-.05-.05l.05-.05a0,0,0,0,0-.05-.05H274l0-.1,0-.05V27l0,0,.05,0,.05-.1h.15v.05l-.2.1h.15l.1.05-.05.1-.1,0v.05h.1a0,0,0,0,1,.05.05c0,.05,0,.05.05.1s.05,0,.05.09l.05,0,0,.05v.1l.05.05.05-.05.05.05Zm14.74.2h.1l.1.05.1,0v.1l.1.05v.05l-.05,0,.05.05-.05.05.1.1-.05,0a7,7,0,0,1,1.64,2.08A7,7,0,0,1,293.92,32c-.4-1.69-1.84-3.17-4-4.42l-.1.1v.05l-.1-.05c-.05-.05-.2,0-.2,0v.05l-.1-.05-.05.05h-.1l.05.1c-.09.1-.05.15-.05.15m-14.14.94-.2,0-.2,0V29h.65v-.14l-.1,0-.15.14Zm-4.57,8.19a.5.5,0,0,0-.15,0s-.29.15-.29.2.05.2,0,.25,0,.1-.1.15l-.1,0s.05,0-.05.05-.1,0-.1.1a.73.73,0,0,1-.1.2.15.15,0,0,1-.05.1s0,.09-.1.14-.1,0-.15,0h0a8.09,8.09,0,0,0,3.23,2.73,1.25,1.25,0,0,1,.59-.1c.1,0,.2,0,.3,0a8.52,8.52,0,0,1-1.83-3.82,7,7,0,0,0-1.05,0m3.87-7.84.05.15-.05.05-.09.1-.1.1h-.2l-.1.1-.1-.1-.1-.1h-.1l-.1-.05v-.1l-.05-.1.05-.2c-.54,0-1.09,0-1.64,0a17.6,17.6,0,0,0-.44,3.87c0,.65.05,1.24.1,1.84a.38.38,0,0,1,.1.2.3.3,0,0,1-.05.2,7.77,7.77,0,0,0,.29,1.54c1.15.05,2.34.1,3.53.1V33.67h0s-.1-.2-.2-.25-.4.15-.4.15a.63.63,0,0,1-.3.1h-.39a.73.73,0,0,1-.2.1.27.27,0,0,1-.2-.15s-.3-.25-.3-.25-.15-.15-.15-.2-.15-.2-.2-.25-.14-.09-.19-.14a.3.3,0,0,1-.05-.2.35.35,0,0,0-.1-.2l.1-.15a.79.79,0,0,0,0-.35c0-.1-.05-.1-.05-.15s-.1-.1-.1-.29a.38.38,0,0,1,.1-.25,1.6,1.6,0,0,1,.15-.25c0-.05.14-.3.19-.3a.34.34,0,0,0,.3-.25c0-.05,0-.1,0-.1V30.1c.05-.05,0-.05.05-.1s.1-.1.15-.1.15-.15.15-.15v-.1h.1l.1.05h.2l.15-.05.09,0a.72.72,0,0,0,.15-.1.51.51,0,0,0,.4,0c.2-.05.15,0,.15,0l.15.05v-.5h-.85Zm-5.16,9.48c0,.05-.05.1-.1.15a1.92,1.92,0,0,0-.24,0h-.15v.15c0,.05.05.05.05.1a.15.15,0,0,1-.1,0l-.15,0a0,0,0,0,0-.05,0,.17.17,0,0,0,.05.1l.1.05,0,0-.05,0,.05.1v.09l-.1,0c0,.05,0,.15.05.15a.5.5,0,0,1,.15.05l.05.1v.1a.17.17,0,0,0-.05.1v.1a14.24,14.24,0,0,0,3.47,1.19s.15,0,.2-.1a11,11,0,0,1-3.13-2.68m4.52,2.19h.64l.5.24.45.05v-4c-1.19,0-2.33,0-3.48-.1a8.22,8.22,0,0,0,1.89,3.83M259.63,35a4.79,4.79,0,0,1,0-3.92,5,5,0,0,0-2.53,1.49c0,.2-.05.34-.05.54v.4A5.26,5.26,0,0,0,259.63,35M276.3,36.7c-.05-.05,0-.15,0-.2v-.35c0-.1.1-.2.1-.3a.45.45,0,0,0,0-.25c-.05-.09,0-.09-.05-.24s-.49-.8-.49-.8l-.1-.1s.1-.1.1-.15-.05-.09-.05-.14.05-.1.05-.15-.05-.15-.15-.2h-.1V37h.84c.05-.19,0-.34-.1-.34M276,30.19l.15,0,0,.15.15.05.2.1.1-.1v-.1l0-.05.2-.05.2.1.14.05h.15a1.13,1.13,0,0,1,.2.05h.1l.1-.05.15.05H278l.1-.05.05-.1.05-.14.05-.1V30l-.05-.05v-.15l-.05.05-.1-.05-.1.1h-.15s0-.05,0-.1-.15-.05-.15-.05l-.05.05h-.1l-.05-.05h-.15l-.19-.15V29.4a.17.17,0,0,1-.05-.1.17.17,0,0,0-.05-.1h-.1l0,.05h-.2v.1l.15.15-.05.1v.15h-.05l-.1-.05-.1-.1v-.05l-.1-.1-.1-.2V29.2h-.25c.05,0,.15.1.15.1v.05l-.05-.05,0-.05a0,0,0,0,0-.05.05v.05a0,0,0,0,1,.05,0v.05h-.05v.05l-.05.05H276V29.5l.05-.05h0L276,29.3l-.19-.15h-.25v.75h0v.15c.05.05.15.14.2.14H276M278,29.9h0V30L278,30h-.05l-.05-.05.15-.05m-1.09,0,.2,0,0,.05h.05V30h-.14l-.15-.15Zm-.85,11.36a7.37,7.37,0,0,1,.85-.34.79.79,0,0,1,.24.05,8.13,8.13,0,0,0,1.89-3.83h-.3v.1a.18.18,0,0,1-.15.05c-.05,0-.1.15-.1.15s.05.15,0,.2,0,.1-.09.2a1.82,1.82,0,0,0-.4.45.67.67,0,0,1-.45.19.79.79,0,0,0-.4.15l-.14-.25v-.19a2.87,2.87,0,0,0-.2-.35,2.87,2.87,0,0,1-.2-.35.63.63,0,0,1,0-.3.15.15,0,0,0-.05-.1h-.94v4.07a.34.34,0,0,0,.49.1m.4-.64.1.15-.35.15-.1-.25C276.15,40.67,276.5,40.57,276.5,40.57ZM276,28.76s-.14-.15-.14-.2-.1,0-.1.05v.1c0,.05.1.1.14.1l0,0,.05,0h.3l-.3-.14m-4.76,7.09-.05.1v.3a3.49,3.49,0,0,1-.15.6,2.85,2.85,0,0,1,.65,0,11.06,11.06,0,0,1-.25-1.25l-.1.1s-.05.1-.1.1m8.24-10.47.1.05h0c.35.25.69.5,1,.79v0a1,1,0,0,0,0-.39c0-.1.15-.05.3-.1a4.55,4.55,0,0,1,.49-.1,15.94,15.94,0,0,0-3.42-.94,9,9,0,0,1,1.49.69l.05.05Zm-3.13.4H277s.05.1.1.1a6.31,6.31,0,0,1,.74.25l.1,0a3.05,3.05,0,0,0-2.23-1.63v1.39c0-.05,0-.05.15-.05a2.86,2.86,0,0,0,.49-.1M276,27.51h.2l.15,0v-.2l.1-.1h.05V27h.45a.73.73,0,0,0,.29-.15c.1,0,0-.15,0-.15l-.25.1-.45.1-.2-.1v-.1s-.1-.15,0-.15a.7.7,0,0,0,.2-.2l-.2-.1-.15.05,0,.1-.1.1-.2.15v.2l.2.15-.15.2-.19.2h-.15v.19l.1.05.29-.15Zm2.24-1.24.25-.05a4.65,4.65,0,0,0,.69,0c.25,0,.15-.14.15-.14l.5,0V26a4.17,4.17,0,0,0-.6-.4h0l-.25.25.1.15-.15.05-.3-.25.3-.3h.1a7,7,0,0,0-2.28-.79,4.24,4.24,0,0,1,1.49,1.58m-6.85.25v-.3a.65.65,0,0,1,.1-.19s.05-.15.1-.15,0-.05-.05-.1a8.85,8.85,0,0,0-1.64,1.49.18.18,0,0,1-.05.15c-.05,0,.15.09.15.09s.05,0,.1.1l-.2.05h.2l.1.05.05.05-.05.1,0,.05-.25.1a1.28,1.28,0,0,1-.25.1c-.05,0-.1.05-.15.05h-.35c-.09.15-.19.35-.29.5h.25l.19-.1.05.05-.2.15-.24,0-.15.09a1.25,1.25,0,0,1-.2.35c1-.1,2.08-.15,3.13-.2a9.46,9.46,0,0,1,1.19-2.88h-.2l-.55.3-.3.35-.14-.05-.25-.05-.05-.2Zm-1.14,1.84s0,.1-.05.1h-.25l0-.05h-.25v-.1l.2-.15L270,28l.15-.1,0,.15-.1,0h.15s.1,0,.1.05a.39.39,0,0,0-.1.25m20.64,7.79h0c.05.1.15.25.2.35s.1,0,0,.15,0,.2-.15.29a7.31,7.31,0,0,0-.59.7c-.1.15-.15.2-.2.2a.93.93,0,0,0-.35.1.45.45,0,0,0-.25.05c-.05,0-.1,0-.2,0s-.09-.05-.14-.05a18.47,18.47,0,0,1-7.85,3.47,27.4,27.4,0,0,0,7.25-2.13c3-1.44,4.81-3.28,5.21-5.21a6.64,6.64,0,0,1-2.53,1.34c-.1.19-.3.49-.45.74m-1,2.18a1.09,1.09,0,0,0-.25.2l-.1,0,.1-.34h.1l.2-.05a.16.16,0,0,0-.05.14m1.59-7.24a4.8,4.8,0,0,1,.45,2,4.93,4.93,0,0,1-.4,1.89,4.82,4.82,0,0,0,2.48-1.49c0-.15.05-.3.05-.4a1.81,1.81,0,0,0-.05-.54,5,5,0,0,0-2.53-1.49m-8.93,5.85c-1,.1-2,.15-3.08.2A8.76,8.76,0,0,1,277.49,41a7.85,7.85,0,0,1,.8.15,8.64,8.64,0,0,0,4.17-4.22m-13.95-7.49a8.56,8.56,0,0,0-.75,3.52h.05a1.13,1.13,0,0,0,.2,0,.22.22,0,0,0,.15,0s.1.05.15.05v0h.1s0,0,.1.1.15.1.15.1v0s0,0,.1,0,.05.1.15.1.15,0,.24,0,.3.1.3.15.1.1.1.15a.17.17,0,0,0,.05.1l.1.15v.1a.17.17,0,0,0,.05.1.59.59,0,0,1,.15,0l.05.1h.25c.05,0,.24.1.24.15a.17.17,0,0,0,.1.05s.2.1.25.1.1,0,.15,0,.1.05.15.1a.69.69,0,0,0,.2.15c-.05-.55-.1-1.14-.1-1.69a15.51,15.51,0,0,1,.45-3.87,21.32,21.32,0,0,0-3.13.1m18,7c-1.24.2-2.54.35-3.78.45a8.52,8.52,0,0,1-4,4.31,1.46,1.46,0,0,1,.45.1,11.44,11.44,0,0,0,7.35-4.86m2.73,1.09a.5.5,0,0,1-.15.05c-.05,0-.15,0-.15,0s0-.15-.1-.2a1.13,1.13,0,0,0-.35,0,2.82,2.82,0,0,1-.35,0c-.1,0-.1,0-.24.1s-.1.1-.2.15-.15,0-.25,0-.15,0-.25.1-.25.1-.3,0l-.1-.1s.25-.15.2-.25v-.5c0-.09-.05,0,0-.14a1,1,0,0,1,.15-.4c.05,0,.1,0,.15-.1-.15.05-.3.05-.5.1a11.18,11.18,0,0,1-7.09,5h0a19.07,19.07,0,0,0,9.53-3.77v-.1m-5.66-4.07h0l-.05-.1a10.4,10.4,0,0,1-.65,3.28c1.29-.1,2.53-.3,3.82-.5a12.06,12.06,0,0,0,.5-1.19l-.2-.05h-.3l-.19,0v0l-.1-.05v0h.15a.14.14,0,0,1,.09,0,.5.5,0,0,0,.15.05h.1l.05-.05.2.05.1,0a1.46,1.46,0,0,0,.1-.45h-.15l-.1.05-.05-.05h-.15l-.05-.19-.1-.1V34l0-.1.15.05.1-.15.15-.05.1-.15.1,0v-.4a9.08,9.08,0,0,0-.2-1.63.45.45,0,0,1-.2.09,1.55,1.55,0,0,0-.35.1l-.09.05v.1h0l-.05-.15a.26.26,0,0,0-.25.05c-.1.05-.15.25-.15.25l.1.1.1.1a2,2,0,0,0,.2.15.73.73,0,0,1,.1.2v.25l-.15.1-.2.19h-.05V33l.05,0H286s-.1,0-.1-.09-.15-.15-.15-.15h-.1v-.1h-.1v.15l-.05.19V33h.05l.05,0,.1.15,0,.05a.15.15,0,0,1,.1,0c.05,0,.1.15.15.15s.05.25.05.25.1.1.1.1h-.05l-.3-.15a1.19,1.19,0,0,1-.15-.35s-.2-.25-.25-.3,0-.24,0-.34-.15-.3-.15-.35a1.11,1.11,0,0,0-.14-.25v.1s-.1.1-.1.1l-.1-.05V32c-.05,0-.1-.2-.2-.2a.39.39,0,0,1-.15-.2s-.15-.09-.15-.09l-.05,0-.15,0h-.1l-.15.05v.1a0,0,0,0,1-.05.05l-.19.2c-.05.05-.15.1-.15.2s-.15.1-.15.1h0c0,.2.05.45.05.69,0,0,.15.2.2.2v.15l-.15.15Zm3-1.39-.1,0c-.05,0,0-.1,0-.1l0-.1h.14l-.05.15,0,.1Zm-1.39,1.39.09.05h.15l.05.1.2.1.15.1.15.1.1,0,.1.05-.05.1h.05l.1.1.15,0v.35h-.1s-.2-.2-.25-.2l-.15-.15s-.1-.09-.1-.09l-.1-.1-.05-.2-.1-.1-.1-.1s-.2-.2-.2-.25-.09,0-.09,0m4-3.42,0,.14c.64.15,1.19.3,1.68.45A8.27,8.27,0,0,0,288,27.71h-.24c-.1,0-.2-.05-.35-.05h-.1l-.1.3-.1.15h.05l.15.05.05.1h.1v-.05a1.28,1.28,0,0,0,.25.1.5.5,0,0,1,.15.05.17.17,0,0,1,.05.1l.09.15a1.63,1.63,0,0,1,.15.24v0s0,.1.05.1a.5.5,0,0,0-.05.15.5.5,0,0,1-.05.15l-.1.1h-.09l-.05,0-.05,0c0,.05-.1.1-.1.1l.1.1-.1.1h-.05l.05.1a.71.71,0,0,1,.2.1,5.39,5.39,0,0,1,.94.2l.1-.05,0-.2-.1-.1v-.1h.1l.05.05.15.1-.05.15.05.1Zm-.6-1.05-.1-.15-.1-.09-.15-.15-.2-.2-.05-.1.3.2.25.2v.14l.15.2-.05.05Zm.55.45-.05.15-.15-.05h-.05v.05h-.05l-.15-.1s0-.1,0-.1,0,0,0,0l-.1-.15v-.05l.25.15.25.05.05.1Zm-9.38-.84-.05-.05h-.25l-.1.05-.1.1h0c0,.1,0,.14,0,.24h.3l-.1-.1v0l0,0,.05,0-.05,0,.05-.05h.2v-.05l-.1-.05C279.73,28.76,279.73,28.61,279.73,28.61Zm7.69,1.24h0a.17.17,0,0,0-.05-.1h-.2a.17.17,0,0,0-.1.05.74.74,0,0,1,.35.05m-22-3.33h.3l.2-.05h.1l0,.05a0,0,0,0,0,0,.05c.05,0,.1-.1.1-.1v0l.29-.05h.3v-.05c0-.05-.2,0-.2,0a2.17,2.17,0,0,1-.59.05.11.11,0,0,1-.1-.1c.05-.05.2-.05.2-.1h0a1.78,1.78,0,0,0-.45.2h.1v.05l-.2.1ZM286.92,30Zm-4.41-4.32c.19.05.44.1.24.15s.2.15.2.15l.55.1s.44,0,.59,0a1.73,1.73,0,0,1,.5.19l.55.1h.29v-.05a23.74,23.74,0,0,0-5.85-1.58,15.91,15.91,0,0,1,2.38.84.84.84,0,0,0,.55.15m-17.72,5.06h-.2a1.77,1.77,0,0,1-.3.05c-.1,0-.15.05-.25.15s-.15.5-.25.79a.42.42,0,0,0,.4.3c.25-.05.4-.1.4-.15s.15-.15.15-.15l.25-.05h.09a.07.07,0,0,1,0,.1.72.72,0,0,1-.19.2s-.1.1-.1.15-.1.1-.15.15.2,0,.2,0l.34,0,.2,0c0,.05-.1.35-.1.45s.15.19.25.24.05,0,.15,0a.67.67,0,0,1,.25-.05l.15.05.1.15.05-.1.1,0,0-.05s0,0,.05-.1,0,0,.1,0a.3.3,0,0,0,.2,0,.39.39,0,0,1,.15-.05l.05.05-.05.09v.05s-.05.1,0,.1h.1l-.05-.1v-.05l.25-.09.15,0v0h.15a5.37,5.37,0,0,1,0-.89h0v-.05h0a7.87,7.87,0,0,1,.64-2.48c-.35.05-.69.05-1,.1a0,0,0,0,1-.05.05.69.69,0,0,1-.2.15v.1l-.35.25c-.1,0-.2,0-.24.09a.39.39,0,0,0-.2.2c-.05.05-.05.3-.05.3s.05.15.05.2.05.05,0,.1-.1.1-.15.1h-.05a1.13,1.13,0,0,1-.05-.2.17.17,0,0,0-.05-.1v-.1l-.05-.05a.5.5,0,0,0-.15-.05.15.15,0,0,1-.1.05.35.35,0,0,0-.2-.1c-.1,0-.34-.1-.34,0s.14.1,0,.1-.15.1-.2.1m1.63,1.34h-.14l0,0V32l.19.1Zm.45-.2h0v-.05l.15.05.15-.05s.1.05.1.1l.15.05V32h-.15l-.1,0h-.05l-.1.1,0,0h-.3V32h.15l.05-.1Zm-1.14-.44h.3l.1,0,.15,0,.14,0,.1.05.15.05v.05l-.05.05h-.39l.1-.05h-.05l-.1-.05-.05-.1H266l-.15,0-.1,0,0,0-.1,0-.15,0h-.05l.3-.09Zm22.63-3.78a5.24,5.24,0,0,1,.55.4l-.05,0v-.1s.1,0,.1-.05v-.25l.05-.05v0l-.1,0v0h-.1l.05,0h-.05l-.05.09-.1,0s-.05,0-.2,0-.1.19-.1.19h0m-6.2,3.83s-.1,0-.1,0-.15-.1-.15-.1l-.15-.2h-.1l-.35,0c-.14,0-.24,0-.39-.1s-.1-.05-.15-.1a.11.11,0,0,0-.1-.1.22.22,0,0,0-.15,0s-.2-.1-.25-.1a.38.38,0,0,1-.2-.1c-.05-.05-.15-.25-.2-.25h-.19c-.05.05,0,.1.05.15a2.43,2.43,0,0,1,.14.2.18.18,0,0,1,.05.15.17.17,0,0,0,.05.1h0V31l.05-.05.05.05.05.15.05,0h.1c.05,0,.1,0,.1,0l.2-.2v.15c0,.1.15.15.2.15s.05,0,.1.05.05.05.1.1a0,0,0,0,0,.05,0,.3.3,0,0,1-.1.19.18.18,0,0,0-.05.2.15.15,0,0,0-.1.05c0,.05,0,.05-.05.05s-.1.05-.15.1-.1.05-.2.05a.11.11,0,0,0-.05.15c-.15,0-.35.15-.54.2v.3h.29l.15-.1h.05a.34.34,0,0,1-.05.29,2.69,2.69,0,0,1-.15.5,1.52,1.52,0,0,0-.25.35l0,0a14.36,14.36,0,0,1-.4,2.93c1,0,2.08-.1,3.13-.2a9.19,9.19,0,0,0,.69-3.48h-.05a.93.93,0,0,1-.15-.2,3.88,3.88,0,0,1-.2-.34c-.1-.2-.2-.3-.2-.4l-.14-.4v-.15l-.05-.05,0,.1a.5.5,0,0,1-.15.05c-.05,0-.2-.2-.2-.2a.18.18,0,0,0,.1,0h0m4.71-1.89-.05.15a.18.18,0,0,1,.15.05v-.15Zm-.2-3.13a1.51,1.51,0,0,1,.6.15,7.08,7.08,0,0,0,.84.15,27.89,27.89,0,0,0-6.75-1.89,21.43,21.43,0,0,1,4.72,1.54c.15,0,.4,0,.59,0M279.18,36.9a15.06,15.06,0,0,0,.4-2.73l-.15.14a3.06,3.06,0,0,0-.3.65l.1.1a.5.5,0,0,1,0,.15v.2a.18.18,0,0,1,.1.15v.49c0,.15-.25.3-.35.35s-.1.1-.15.15a.72.72,0,0,0-.1.15.29.29,0,0,1,.05.2h.35M268.56,25.48c.1-.05-.1-.05-.1-.05l-.3.1h-.05a14.6,14.6,0,0,0-1.54.5h.05l.2-.1h.2l-.15.15.1.05-.1.29h.1s.2-.05.2,0v-.1l.25-.05h.1l.15-.1-.05,0-.1-.05.2-.1.14-.15.15-.15.2-.05v.05l-.25.15-.1.1-.05.05.1.1a.17.17,0,0,1,.1,0h.05l.3-.15c-.3,0-.05-.1-.05-.1l.2-.15.25-.15.39-.05.2-.1-.69.05c0,.2-.15.15-.1.1m-1.09.5-.15-.15.3-.1.1.05Zm-1.1-7.55s0,.05,0,.1h0s.09,0,.14,0l.2-.2-.3.05"/><path class="cls-1" d="M297.69,1.76c-.05,0-.1-.05-.2,0s-.89.64-1.14.79c0,0,0,0,0-.1l.05-.1A6,6,0,0,0,297.1.47a.74.74,0,0,0-.05-.35A.1.1,0,0,0,297,0c-.1,0-.2,0-.35.15s-1.84,1.73-1.89,1.73l0,.05h0V1.86l.09-.35a5,5,0,0,0,.15-.75.37.37,0,0,0-.05-.25.11.11,0,0,0-.1-.09.28.28,0,0,0-.24.14,33,33,0,0,1-2.63,2.73l-.05,0a2.92,2.92,0,0,1,.19-.49,6.65,6.65,0,0,0,.5-1.59.18.18,0,0,0,0-.15c0-.05-.1-.1-.15-.1-.3,0-.89.65-2.33,2.28l-1.19,1.34h0V4.49a2.38,2.38,0,0,0-.2-1c-.1-.1-.15-.15-.25-.15s-.25.15-.44.55a17.89,17.89,0,0,1-3.58,3.47l0,0a15.34,15.34,0,0,0-4,4,9.33,9.33,0,0,1-3.92,2.78c-.35.15-.69.3-1,.45a20.85,20.85,0,0,0-2.63-.1,4.61,4.61,0,0,0-2.24-3.18A58.56,58.56,0,0,1,264.29,7,16.2,16.2,0,0,1,262,4.44c-.3-.35-.4-.5-.45-.5a.22.22,0,0,0-.25.05c-.05,0-.05.1-.05.25a2.48,2.48,0,0,0,.2.79h0l-.1,0a4.5,4.5,0,0,1-1.64-1.49A12.83,12.83,0,0,1,258.38,1a.11.11,0,0,0-.1-.1c-.09,0-.14.1-.14.2a3.24,3.24,0,0,0-.1.84,6.7,6.7,0,0,0,.2,1.49h0A10.86,10.86,0,0,1,256.15.76c0-.05-.15-.2-.3-.15a.11.11,0,0,0-.1.1c0,.05-.05.1-.05.2a7.08,7.08,0,0,0,.8,2.24,16.85,16.85,0,0,1-1.74-1.94c0-.05-.2-.3-.35-.3a.18.18,0,0,0-.15,0c0,.05,0,.1,0,.2a5.62,5.62,0,0,0,.64,2c-.35-.25-.64-.5-1-.75,0,0-.15-.1-.25,0a.42.42,0,0,0-.1.3,3.19,3.19,0,0,0,.35,1,.17.17,0,0,1-.1,0,1.31,1.31,0,0,0-.4-.15.18.18,0,0,0-.15,0v.1a2,2,0,0,0,.25.7,12.68,12.68,0,0,0,1.09,1.14c-.25-.1-.74-.2-.79-.25s-.2-.05-.3,0-.05,0-.05.1v.1A8.22,8.22,0,0,0,256,7.26c-.3,0-.44,0-.49,0l-.05.05v0a4.24,4.24,0,0,0,1.83,1h-.1c-.2,0-.29,0-.34.05v.1c.05.14.1.34,1.88,1-.25,0-.4,0-.44.1v.1A6,6,0,0,0,260.82,11c-.15.05-.25.05-.3.1v0h0c.1.34,1.74.94,3.22,1.39a.47.47,0,0,0-.29.09c-.05,0-.05.05-.05.1h0c0,.15.44.65,3.87,1.54h.05c-.05,0-.15,0-.15.15h0c0,.1.1.2.35.35a11.71,11.71,0,0,0,1.58.69c-1,.55-2.08,1.15-3.07,1.79l0,.05v.05a.8.8,0,0,1-.45.69,1.34,1.34,0,0,0-.69.9v.15a2.14,2.14,0,0,0,.74,1.39c.1.1.2.1.2.05a.3.3,0,0,0,.05-.2.51.51,0,0,1,0-.4c.05-.1.1-.15.2-.15a1.16,1.16,0,0,1,.74.05l.15.05a1.2,1.2,0,0,0,.89-.15,3.6,3.6,0,0,1,1.49-.05h.3a2.86,2.86,0,0,1-.35.4l-.24.2a3.45,3.45,0,0,0-.6.54l-1.39.25a0,0,0,0,0,0,.05,4.65,4.65,0,0,1-.84,1.09,3.6,3.6,0,0,1-1.05.65h0a2.21,2.21,0,0,0-.24.94v.35a.77.77,0,0,0,.19.2c.05,0,.2.15.4.25l.3.1h0a23.86,23.86,0,0,0-4,1.48c-3.82,1.84-6,4.32-6,7.05s2.09,5.21,6,7a35.59,35.59,0,0,0,27.1,0c3.82-1.84,5.95-4.32,5.95-7s-2.08-5.21-5.95-7.05a27,27,0,0,0-8-2.28h.05c.15-.05.2-.15.25-.3a1.75,1.75,0,0,0,1.09.25.9.9,0,0,0,.69-.69c0-.05.05-.05.1-.05l.1.05a1.16,1.16,0,0,0,.74.05,1,1,0,0,0,.4-.4q.07-.15.15-.15c.05-.05.1-.05.2-.05s.4,0,.5-.2a1,1,0,0,0,.1-.35s0-.19.09-.24.8-.3.95-.85a.5.5,0,0,0,0-.29c0-.15-.2-.2-.4-.25l-6.2-1.64a1.35,1.35,0,0,1-.4-.35,15.39,15.39,0,0,0,3.87-.4c.05,0,.15-.09.15-.14s-.05-.1-.1-.15-.15-.1-.2-.1h.05a18.79,18.79,0,0,0,2.38-.65c.2-.1.25-.2.25-.25h0c0-.09-.15-.14-.25-.14a.7.7,0,0,1-.29,0,.42.42,0,0,0,.14-.05,15.72,15.72,0,0,0,2.64-.75c0-.05.19-.1.19-.2h0s0-.1-.1-.15a3.14,3.14,0,0,0-.94-.1s.05,0,.05,0,.25-.1.45-.15c.89-.3,2.53-.85,3-1.44a.18.18,0,0,0,.05-.15q0-.08-.15-.15h-.6l0-.05.15,0a15.29,15.29,0,0,0,3-1.84.54.54,0,0,0,.15-.29h0l-.05-.1a.51.51,0,0,0-.35-.1h-.05a.17.17,0,0,1,.1-.05l.1,0a7.73,7.73,0,0,0,2.23-1.54.5.5,0,0,0,.05-.15v0c0-.05-.05-.1-.15-.1a3.39,3.39,0,0,0-.79.1h0s0-.05.1-.1l.15-.1a5.41,5.41,0,0,0,1.68-1.59h0c0-.05,0-.19-.1-.24s-.1,0-.14,0l-.45.1.05,0a10.17,10.17,0,0,0,1.74-2.34,1.8,1.8,0,0,0,.14-.49s0-.1-.05-.1-.19,0-.29.1l0,0-1,.59h0l.1-.1.2-.25a5.42,5.42,0,0,0,1.29-2.13h0v0c.1-.55.1-.64,0-.69M290,5.23a28,28,0,0,0,4-3.33h0c0,.05,0,.1-.1.2a19.5,19.5,0,0,1-4,3.38c.1-.05.1-.15.1-.25m5.66-3.42h.05l0,0h0a1.12,1.12,0,0,1-.3.55,30.48,30.48,0,0,1-6.25,4.72,4.56,4.56,0,0,0,.34-.6,36.88,36.88,0,0,0,6.11-4.71M289.5,5.58s-.1.2-.49.54a13.56,13.56,0,0,1-1.39.8c.05-.1.1-.15.15-.25s.74-.45,1.73-1.09m-2.73,6.3a24,24,0,0,1-2.68.79h0v0l.4-.65a0,0,0,0,1,.05-.05,29.9,29.9,0,0,0,2.88-.84v.2a1.78,1.78,0,0,1-.6.59m0,.7h0c0,.05,0,.05,0,.09a1.8,1.8,0,0,1-.84.55,23.32,23.32,0,0,1-2.78.79c-.05,0-.05,0-.05,0v-.05l.4-.5h.05c.4-.1,1.59-.35,3.22-.89,0,0,0,0,0,.05m.45-2.14a22.64,22.64,0,0,1-2.23.7h-.05v-.05l.3-.65,0,0c.45-.1,1.3-.35,2.44-.74a0,0,0,0,1,0,0h0v.15a2,2,0,0,1-.55.59m.4-1.49c-.65.25-1.29.45-1.94.65h-.05v0l.2-.45a0,0,0,0,1,.05,0,16.29,16.29,0,0,0,1.94-.64,0,0,0,0,1,.05.05v.1a.91.91,0,0,1-.25.39m-1-.64h-.09v-.1l.24-.3h0a16.69,16.69,0,0,0,2-1,3,3,0,0,1-.8.79c-.44.2-.89.4-1.39.6M262,5.18a3.06,3.06,0,0,1,.2.3A12,12,0,0,0,265.83,9a41.9,41.9,0,0,1,4.22,2.78c1.93,1.49,1.78,2.43,1.78,2.58a.14.14,0,0,1-.14.15,9.33,9.33,0,0,0-1.44.5c-.15.1-.1-.1-.1-.1a1.84,1.84,0,0,0,.29-.8c.05-1.83-3-2.82-5.6-5S262.06,5.92,262,5.58s0-.45.05-.4m.34,3.87,1.89.3h.05l.55.35v.05s0,.05,0,0l-.3-.05-1.09-.15a2.48,2.48,0,0,1-1.09-.45s0,0,0,0m-.79-.74a.15.15,0,0,1-.05-.1l.6.15,1.09.2h0l.54.34s.05,0,0,0l-.05.05a6.58,6.58,0,0,1-.94-.2,5.12,5.12,0,0,1-1.19-.49m2,1.88a11.33,11.33,0,0,0,1.39.2l.89.1h0l.54.3s.05.05,0,.05l-.05.05-1.14-.15a2.43,2.43,0,0,1-.59-.1c-.8-.15-1-.4-1-.45h0M265,11.24a1.88,1.88,0,0,0,.5,0l1.49.14h0l.2.15s0,.05,0,.05l-.05,0h-.05a3.74,3.74,0,0,0-.79,0,3.85,3.85,0,0,1-1.34-.3.19.19,0,0,1,0-.09m-3.27-3.78h.05l.1,0h0l.54.4s.05,0,0,0l-.05,0-.49-.15a.71.71,0,0,1-.3-.1c-.6-.2-.69-.35-.74-.45a0,0,0,0,0-.05,0v0c.34.09.64.19.94.24m-.45-.64s-.05,0-.05,0l-1-.3a4.51,4.51,0,0,1-.84-.55l-.05,0c.44.15,1,.35,1.54.5l.44.3v.1M258.58,2.6a5.91,5.91,0,0,0,2.19,2.48c.24.15.39.6.49.8v0h0a6.47,6.47,0,0,1-2.18-2,3.11,3.11,0,0,1-.5-1.34h0m-.2,2.08a12.9,12.9,0,0,0,1.39.7l.4.35v0s-.05,0-.05,0l-.4-.15h0a.58.58,0,0,0-.24-.1,2.68,2.68,0,0,0-.55-.25c-.3-.2-.45-.3-.5-.4s-.05,0-.05-.1v-.1M255.11,2.1h0a6.91,6.91,0,0,0,1,1.14l.05,0c.2.2.45.35.69.55a8.14,8.14,0,0,0,.85.55c0,.1,0,.19.1.29a7.7,7.7,0,0,1-1.14-.79,11.57,11.57,0,0,1-1.1-1l-.34-.35-.1-.15a.43.43,0,0,1-.15-.25h0l.05,0h0m-.3,1.49h0v0h.05s.25.2.5.45a17.45,17.45,0,0,0,3,1.64,2.09,2.09,0,0,0,.35.39,15.42,15.42,0,0,1-3.52-2l-.25-.2a1.09,1.09,0,0,0-.15-.25m.4,1.39-.15-.1h0v-.1s.05,0,.05,0a11.36,11.36,0,0,0,2.83,1.44c.39.15.84.35,1.24.5a7.16,7.16,0,0,1,.94.35.54.54,0,0,1,.25.19v.2A12.17,12.17,0,0,1,258.93,7a14.34,14.34,0,0,1-3.52-1.79C255.46,5.13,255.21,5,255.21,5Zm.69,1.34a.73.73,0,0,0-.2-.1h0v-.1s.05,0,.05,0l.3.15a15.27,15.27,0,0,0,1.59.7c.89.34,1.94.69,3,1l.2,0c.05.05.19.15.19.25v.05a1.08,1.08,0,0,1-.29-.05l-.55-.15-.94-.3h-.05l-.35-.1-.5-.15a15.25,15.25,0,0,1-2.43-1.24m1.29,1.49h0m.25.55h0m.4-.3h0l-.5-.25-.15,0v0h0a0,0,0,0,1,.05,0c.55.2,1.14.4,1.74.6.84.25,1.69.44,2.58.64a2.17,2.17,0,0,1,.35.3c0,.05,0,.05,0,.1-.5-.1-1-.25-1.54-.4s-1-.3-1.49-.49a3.65,3.65,0,0,1-1-.35m1.49,1.14h0c-.05,0-.05,0,0,0l-.05,0a0,0,0,0,1,.05-.05,22.87,22.87,0,0,0,3.52.94,3.53,3.53,0,0,1,.45.35s.05,0,0,0-.05,0-.1,0a17.69,17.69,0,0,1-3.87-1.19m2.13,1.39h0l0-.05,0,0c.89.25,1.79.45,2.68.65a2.28,2.28,0,0,1,.3.19c.05,0,.05.05.05.1s-.15,0-.2,0c-.94-.24-1.89-.49-2.83-.79m1.94,1.19a0,0,0,0,1,0,0l0-.05a22.89,22.89,0,0,0,2.28.45c.05,0,.1,0,.15,0s.35.2.35.25a19.86,19.86,0,0,1-2.78-.65m4,1.59c-.3,0-.65-.1-1.09-.15a0,0,0,0,1,0-.05c0-.05,0-.05,0-.05.34.05.69.05,1,.1h0a.5.5,0,0,1,.2,0c.1.05.29.15.29.2s-.29-.05-.44-.1m.49-.74a3.5,3.5,0,0,1-1.24-.3l-.05-.05a14.13,14.13,0,0,0,1.44.1h0a.17.17,0,0,0,.1,0c.15.05.3.2-.25.2m1.15.84a1.46,1.46,0,0,1-.45-.1l-.05,0c-.1-.05-.05-.1-.05-.1H269s.09.1.09.15l-.09.1m.14.59h0c-.09-.05,0-.05,0-.05h.25a.17.17,0,0,1,0,.1l0,.05c0-.05-.1-.05-.2-.1m.25,6.61,1.19-.9c.1-.1.15-.1.15-.1h.75s-1.09.65-1.44.8-.6.25-.65.2h0m5.86-1.49c0-.1-.2-.45-.94-.6,0,0-.05,0,.05,0a2.44,2.44,0,0,1,1.44.1h0a.7.7,0,0,0-.49-.45s-.05-.05,0-.05,1.39-.19,1.39,1.74a.07.07,0,0,1-.1,0c0-.05-.35-.45-.5-.64s-.2,0-.2.29-.14,1.34-.24,1.2-.2-.6-.35-.4a2.57,2.57,0,0,1-1,1s-.05.05-.05-.05.1-.64.1-.64v-.1a7.18,7.18,0,0,1-1.49.94s-.1,0-.1-.05.29-.74.29-.74a4.09,4.09,0,0,1-1.83.44,0,0,0,0,1-.05-.05.94.94,0,0,0-.25-.59,7,7,0,0,0,1.24-.65,6.4,6.4,0,0,0,.8-.59,5.51,5.51,0,0,1,2.18-.15c0,.1.1.15.05.05M279,22.9h0l-.05.1a.67.67,0,0,1-.25-.05l-1.14-1.69v-.05h0ZM278,20.62h0L280.67,23V23a.11.11,0,0,1-.1.1.22.22,0,0,1-.25,0l-.1-.05-1.14-1.24-.79-.9-.25-.29h0m-.4,1.68h-.05l-.44-.89v-.05h0l.45.89c.05,0,.05.05,0,.05m.15-3.82h-.05a3.37,3.37,0,0,0-.79-.64l-.05-.05s.05-.05.05,0a3.84,3.84,0,0,1,.84.69h0m-.45.45a.18.18,0,0,1,0,.15c-.05,0-.1,0-.1,0h0a2.22,2.22,0,0,0-.74-1,.11.11,0,1,1,.1-.2h0a4.81,4.81,0,0,1,.79,1.14m-10.67,3.52a12.45,12.45,0,0,1,.85-1s.89-.1,1.39-.2S270.4,21,270.4,21v.1c0,.1-.2.1-.2.1-.5.05-.65.3-.7.55a1.42,1.42,0,0,1-.15.54.69.69,0,0,0-.34-.54,1.39,1.39,0,0,0-1.2.44,1.18,1.18,0,0,0,0,.95c-.49-.2-.54-.55-.49-.65a2,2,0,0,1,.15-.44,0,0,0,0,0-.05,0,2.23,2.23,0,0,0-.45.49,3.4,3.4,0,0,0,.15.6s-.4-.3-.55-.45.1-.2.1-.2m-.39,2h0m.69-.15h0c-.05-.05-.05-.1-.1-.1l-.25-.3h0l-.05-.05h0v-.1a.69.69,0,0,1,.15-.2,2.31,2.31,0,0,0,1.09.45h.05V24h0v-.2c.1,0,.35.05.65.05a.15.15,0,0,0,.1-.05v-.25a1.13,1.13,0,0,1-.35-.64c0-.15.15-.3.4-.4a.45.45,0,0,1,.49.2c.3.5.1.7.1.7v.09l.05.05a.69.69,0,0,0,.5-.64v-.3a.68.68,0,0,1,.15-.54.18.18,0,0,1,.25,0c.05,0,.24.35,1.24.2h0a1.56,1.56,0,0,1-.2.3.17.17,0,0,0-.05.1h0c0,.05.05.05.1.1a5.06,5.06,0,0,0,2.18-.4,1,1,0,0,1-.1.3c-.05.05-.05.05,0,.1s.05.05.1.05a3.74,3.74,0,0,0,2-1.39h0a1.37,1.37,0,0,0,.2.35c0,.05.1.1.15.05s0,0,.49-.6l.05,0c0,.05.5.94.75,1.49,0,0,.24.4.54.4h.2a.54.54,0,0,1,.3.05l.15.1a2.58,2.58,0,0,0,.34.19c-1-.1-2.08-.14-3.17-.14a35.93,35.93,0,0,0-8.49.94Zm22.83,2.78.55.3c2.68,1.63,4.12,3.62,4.12,5.7,0,2.48-2,4.77-5.61,6.5a34.82,34.82,0,0,1-26.6,0c-3.63-1.73-5.61-4-5.61-6.5,0-1.88,1.14-3.72,3.32-5.21a17.3,17.3,0,0,1,2.29-1.29.72.72,0,0,1,.24-.1,34.83,34.83,0,0,1,26.31.1,9.19,9.19,0,0,1,1,.5m-10.52-3.58a.89.89,0,0,0,.35-.19h.05l.15.09.24.15a4,4,0,0,1-.79-.05m3.23-.54c-.05.05-.15.15-.45-.05l-3.67-2.73-.1-.1v-.05h0l.19.1,3.78,2.38a1.13,1.13,0,0,1,.25.25h0v.05c0,.1,0,.1-.05.15m1.34-.75v.05a.36.36,0,0,1-.3.15h-.05l-.1-.05-.1,0-2.88-1.63-1.69-1-.05,0v-.05h.05l.1.05,5,2.43v0l.05.1m.94-.54c-.05.1-.2.2-.3.15h-.05l-5.56-2.58v-.05l.05-.05L283.7,21l1.19.45h0c-.05.1-.1.15-.1.25m.4-.95h0c.05,0,.09,0,.14.15v.15a.24.24,0,0,1-.24.05L279.38,19l-.1-.05h0a0,0,0,0,1,.05-.05h.1l5.76,1.88Zm-5.32-5.16a12.17,12.17,0,0,1-5.26,1.49c-.64,0-1.14.8-2.08,1.44a2.64,2.64,0,0,1-1.94.5,1.41,1.41,0,0,0,.2-.85,2.05,2.05,0,0,1-1.19.95,3.51,3.51,0,0,1-1.09.1,4.42,4.42,0,0,0-1.14.24,1.9,1.9,0,0,1-.65,0,1.55,1.55,0,0,1,.6-.19,4.1,4.1,0,0,0,.64-.15,2.47,2.47,0,0,0-1.29.15.63.63,0,0,1-.59,0,.58.58,0,0,0-.5.59,1.52,1.52,0,0,1-.2-.79c0-.5,1.14-1,1.14-1a1.06,1.06,0,0,1,.9.19c.15.3.39.45.59.25s.25-.39.4-.39h.3l.2-.15a0,0,0,0,0-.05-.05,4.18,4.18,0,0,1-1.14.1,1.19,1.19,0,0,1-1.15-.5c1.54-.5,3.08-1.94,4.72-2.28a10.15,10.15,0,0,1,3.37-.05,3.77,3.77,0,0,0-.59.94,28.43,28.43,0,0,1,6.1-3.23,13,13,0,0,1,4.72-5.06A14.38,14.38,0,0,0,288,4.54c.15-.3.25-.3.25-.3-.05,1-1,2.13-1.88,3a25.81,25.81,0,0,1-2.09,1.68c-.1.1,0,.15,0,.15l.3,0c.05,0,.05.1.05.1a3.68,3.68,0,0,1-.79.79c-.05.1,0,.1,0,.1a.47.47,0,0,1,.19.05c.1,0,0,.15,0,.15l-.79.75a.15.15,0,0,0-.05.1l.4-.05s0,.1,0,.1a3.12,3.12,0,0,1-.7.89l-.05.1h.4c.05,0,0,.05,0,.05a7.08,7.08,0,0,1-1.94,1.69s.4.14.4.19,0,.05,0,.05a10,10,0,0,1-2.18,1.05s.29.14.29.19a.24.24,0,0,1,0,.2m1.54,1a10.2,10.2,0,0,1-1.29,0,.1.1,0,1,1,0-.2h1.29a.11.11,0,0,1,.1.1h0a.11.11,0,0,1-.1.1m2.73-1.44h0l-.1.05-.84.29-.69.15a2.17,2.17,0,0,0-.25,0l-1.09.15c-.35.05-.05-.15,0-.2h0c.35-.05,1.39-.15,3-.49-.05-.1,0-.05-.05,0M282,15c-.05,0-.05,0,0,0l.25-.25a.31.31,0,0,1,.2-.1,24.46,24.46,0,0,0,3.37-.84s.05,0,0,0l-.05.05a5.11,5.11,0,0,1-1.09.44c-.84.25-1.74.45-2.68.65m6.65-1.24a0,0,0,0,0-.05.05A25.13,25.13,0,0,1,285,15.11a2.7,2.7,0,0,0,.44-.35c.9-.25,1.94-.6,3.13-1,.05,0,.1,0,.1,0s0,0,0,0m2.78-2.09a4.58,4.58,0,0,1-.65.35c-.19.1-.44.2-.69.35a2.44,2.44,0,0,1-.35.15c-.69.29-1.54.64-2.48,1a6.08,6.08,0,0,0-.89.35,1.09,1.09,0,0,1,.2-.25l.84-.3A32,32,0,0,0,290.74,12a1.83,1.83,0,0,1,.7-.35s.1-.15,0,0M292.83,10h0v.1a6.48,6.48,0,0,1-.6.35l-1,.55-.4.2c-.64.34-1.34.64-2,.94-.5.2-1,.45-1.64.64.1-.14.15-.29.25-.44l1.14-.4c1-.4,2.13-.94,3.52-1.64.15-.1.65-.3.75-.35s-.05,0,0,.05h0M295,7.66A20.08,20.08,0,0,1,291,10l-1.34.65c-.69.3-1.34.6-2,.84a3.15,3.15,0,0,0,.2-.64,37.92,37.92,0,0,0,7-3.33.5.5,0,0,1,.15,0v.15M296,5.48a34.83,34.83,0,0,1-7.9,4.66c.05-.24.05-.44.1-.64a30.44,30.44,0,0,0,7.5-4.07c.15-.1.2-.15.3-.1s0,.1,0,.15M296.8,3a34.49,34.49,0,0,1-8.64,5.75V8.21a32.22,32.22,0,0,0,8.49-5.46h0c.1,0,.15-.1.2,0s0,.15-.05.25M20.4,31.63C20.4,29,18.86,29,17.72,29H16.38V27.27c2.13.1,4.37.24,7,.24s4.86-.09,7.09-.24V29h-.69c-1.09,0-2.68.1-2.68,2.68v7.75a48.24,48.24,0,0,1-11.47,1.78C6.65,41.16,0,35.85,0,26.17c0-7.49,4.62-15,15.78-15a37.94,37.94,0,0,1,11.32,2l-.25,8.14H24.17c-.05-4.71-3.27-7.54-7.69-7.54-7.25,0-9.33,5.46-9.33,12.35,0,6.66,3.47,12.56,9.87,12.56a15.82,15.82,0,0,0,3.38-.45V31.63ZM33.6,15.9c0-1.69-.25-2.48-3.08-2.53V11.68c2,.1,4.22.25,6.46.25s4.46-.1,6.7-.25v1.69c-3.08.05-3.33.84-3.33,2.53V31.29c0,4.56,2.78,6.25,6.8,6.25,5.41,0,7.2-2.83,7.2-8.54V15.9c0-1.69-.25-2.48-3.38-2.53V11.68c1.39.1,2.93.25,4.52.25a33.67,33.67,0,0,0,3.92-.25v1.69c-2.28.05-2.53.84-2.53,2.53V29.3c0,9.43-5.61,11.86-11.32,11.86-7.1,0-12-2-12-10.42V15.9Zm27.65,23c3.32,0,3.57-.84,3.57-2.53V15.9c0-1.69-.25-2.48-3.38-2.53V11.68c2.24.1,4.52.25,6.7.25s4.47-.1,7.4-.25v1.69c-3.77.05-4.07.84-4.07,2.53V36.8c0,1.19,0,1.63,2.28,1.63,4.67,0,8.74-.89,9.78-6.3h1.89c-.65,2.78-1.24,5.61-1.64,8.44-3.23-.1-6.85-.25-10.92-.25-4.32,0-8.24.1-11.66.25V38.93Zm25,0c3.33,0,3.57-.84,3.57-2.53V15.9c0-1.69-.24-2.48-3.32-2.53V11.68c3.52.1,7.1.25,10.67.25s7.2-.1,10.82-.25c0,2.38.15,5.46.3,7.3h-1.94c-.25-5-2.93-5.11-7-5.11-1.73,0-2.88,0-2.88,1.24V25.23h3.33c3.08,0,4.17-.4,4.17-3.72h1.64c-.15,1.69-.25,3.37-.25,5.06a47.66,47.66,0,0,0,.25,5.11H104V30.49c0-2.83-1.29-3.32-3.87-3.32H96.48V36.4c0,1.69.25,2.48,4.22,2.53v1.69c-2.53-.1-5.26-.25-7.44-.25s-4.62.1-7.05.25V38.93Zm40.3-24.32a3.51,3.51,0,0,0-2.83-1.24h-.44V11.68c1.63.1,3.32.25,4.91.25s3.33-.1,5-.25l14.25,18.37h.1V15.85c0-1.69-.25-2.48-3.68-2.53V11.63c1.79.1,3.58.25,5,.25a33.49,33.49,0,0,0,4.17-.25v1.69c-2.63,0-2.88.84-2.88,2.53V40.57h-3.18L129.14,17.44H129v19c0,1.69.25,2.48,3.73,2.53v1.69c-1.79-.1-3.58-.25-5-.25s-3.17.1-5,.25V38.93c3.42,0,3.72-.84,3.72-2.53l0-21.79ZM154.6,38.93c3.43,0,3.73-.84,3.73-2.53V15.9c0-1.69-.25-2.48-3.38-2.53V11.68c3.52.1,7.1.25,10.67.25s7.2-.1,10.82-.25c0,2.38.15,5.46.3,7.4H174.8c-.24-5.07-2.92-5.21-6.94-5.21h-1.59c-1,0-1.29.34-1.29,1.19v9.68h3.07c3.08,0,4.17-.8,4.17-3.88h1.64c-.15,1.59-.25,3.23-.25,4.82a46.09,46.09,0,0,0,.25,5.06h-1.64c0-3.32-1.09-4.12-4.17-4.12H165v10c0,1.14.54,1.54,1.63,1.54h1.69c4.47,0,7.74-.65,8.69-5.51h1.83a72.9,72.9,0,0,0-1.48,7.89c-3.73-.1-7.45-.25-11.17-.25s-7.74.1-11.62.25l0-1.59Zm23.53-27.25c2,.1,3.92.25,5.91.25s3.72-.1,5.6-.25v1.69h-.79c-1,.15-1.09.64-1.09,1.14a12.25,12.25,0,0,0,.44,2.28l4.67,16.43h.1l4.22-13.65-1-4c-.5-2-.8-2.23-2.49-2.23h-.89V11.68c2,.1,4.07.25,6.06.25,2.18,0,4.41-.1,6.65-.25v1.69h-.7c-1.34,0-2.08.35-2.08,1.09a18.66,18.66,0,0,0,.49,2.88l3.63,16.53h.1l5.41-16.93a9.14,9.14,0,0,0,.54-2.53c0-.89-.84-1.09-2.13-1.09h-.95V11.63c1.54.1,3.38.25,4.57.25a33.52,33.52,0,0,0,3.87-.25v1.69c-1.79,0-2.63,1.34-3.27,3.33l-7.95,24.17h-4.31l-4.37-16.63h-.1l-5.41,16.63h-4.32L181.21,16.5c-.85-2.73-1.05-3.08-3.18-3.08l.1-1.74Zm58.27,8.54h-2.34c-.09-4.07-1.29-6.65-5.9-6.65-2.24,0-4.42.94-4.42,3.82,0,5.81,14.54,3.67,14.54,14.19,0,6.75-5.06,9.53-11,9.53a19.94,19.94,0,0,1-9.48-2.53c.15-2.33.2-5.71.2-8h2.78c0,4.37,1.74,7.94,6.26,7.94,2.83,0,5.41-1.14,5.41-3.82,0-6.8-14.3-4.66-14.3-14.94,0-5.46,4-8.58,10.08-8.58a44.23,44.23,0,0,1,8.48,1.14l-.34,7.94Z"/></svg>